<?xml version="1.0" encoding="UTF-8"?>
<svg version="1.1" xmlns="http://www.w3.org/2000/svg" width="666" height="374">
<path d="M0 0 C5.81960087 5.88217723 10.33620831 12.90338281 14.1796875 20.203125 C22.50849372 36.10681353 22.50849372 36.10681353 32.1796875 51.203125 C32.71851563 51.96109375 33.25734375 52.7190625 33.8125 53.5 C41.65812292 63.98200633 50.17710315 70.15372121 63.1796875 72.203125 C72.70897507 73.35153981 81.81984901 73.03539029 91.31350708 71.99545288 C94.92596092 71.60312215 98.54270896 71.25683899 102.16015625 70.9140625 C103.21293007 70.81417274 103.21293007 70.81417274 104.28697205 70.71226501 C129.43509823 68.39758418 129.43509823 68.39758418 138.4296875 73.47265625 C163.1509044 95.2692649 167.68048569 141.36714005 170.1796875 172.203125 C171.74033825 199.42249366 166.96922774 221.04084664 149.1796875 242.203125 C148.5196875 242.203125 147.8596875 242.203125 147.1796875 242.203125 C146.839375 243.2859375 146.839375 243.2859375 146.4921875 244.390625 C144.48160294 248.69902048 141.32357068 251.31033813 137.6171875 254.203125 C135.06313064 256.14438754 135.06313064 256.14438754 133.1171875 258.890625 C130.96966897 261.45379227 130.25862579 261.48470607 127.1796875 262.203125 C126.49482025 263.52720169 125.83098547 264.86221741 125.1796875 266.203125 C120.73524306 270.203125 120.73524306 270.203125 118.1796875 270.203125 C118.1796875 270.863125 118.1796875 271.523125 118.1796875 272.203125 C115.984375 274.04296875 115.984375 274.04296875 113.0546875 276.140625 C112.10335938 276.83027344 111.15203125 277.51992188 110.171875 278.23046875 C107.25725038 280.1519902 104.31548664 281.67829959 101.1796875 283.203125 C100.04198524 283.91230945 98.91555895 284.64010941 97.8046875 285.390625 C91.83542634 289.19028932 85.40835771 292.16287482 79.06396484 295.27490234 C75.85788542 296.85426409 72.67431457 298.47833289 69.48828125 300.09765625 C66.42577138 301.56413729 63.31069108 302.89161428 60.1796875 304.203125 C59.4055249 304.52853271 58.6313623 304.85394043 57.83374023 305.18920898 C44.31546126 310.81076087 30.8407467 315.25289584 16.59326172 318.62475586 C14.39760494 319.15090505 12.2177796 319.7196545 10.03515625 320.296875 C5.99668222 321.24614144 2.04622014 321.81562381 -2.0703125 322.265625 C-6.94599936 322.74919079 -6.94599936 322.74919079 -11.73583984 323.71948242 C-37.74477207 329.75411521 -75.60111475 323.38008346 -100.8203125 316.203125 C-102.03460938 315.89632813 -103.24890625 315.58953125 -104.5 315.2734375 C-120.3134309 310.98826318 -135.08460595 301.27266494 -147.8203125 291.203125 C-149.11775391 290.18412109 -149.11775391 290.18412109 -150.44140625 289.14453125 C-167.30909306 275.64570284 -167.30909306 275.64570284 -169.8203125 268.203125 C-170.4803125 268.203125 -171.1403125 268.203125 -171.8203125 268.203125 C-184.39414294 248.06584833 -189.99934471 226.44430279 -189.953125 202.70703125 C-189.95408173 201.60125229 -189.95503845 200.49547333 -189.95602417 199.35618591 C-189.95670296 197.0137425 -189.95486968 194.67129719 -189.95068359 192.32885742 C-189.94541817 188.83572866 -189.95059322 185.3427337 -189.95703125 181.84960938 C-189.97790458 118.11093386 -189.97790458 118.11093386 -180.8203125 98.203125 C-179.52321285 94.23552606 -178.69125947 90.37863019 -178.0703125 86.265625 C-175.10402704 69.47966853 -166.38204074 51.45991493 -155.8203125 38.203125 C-155.1603125 38.203125 -154.5003125 38.203125 -153.8203125 38.203125 C-153.6346875 37.543125 -153.4490625 36.883125 -153.2578125 36.203125 C-149.69260021 28.76268197 -143.03709328 23.4207803 -136.8203125 18.203125 C-135.73686549 17.26705865 -134.65354505 16.33084578 -133.5703125 15.39453125 C-119.74080506 3.55117647 -106.38970426 -5.53512945 -88.8203125 -10.796875 C-87.89605469 -11.12429687 -86.97179687 -11.45171875 -86.01953125 -11.7890625 C-57.99696205 -21.35093543 -23.15658849 -19.8039511 0 0 Z " fill="#D9B1B1" transform="translate(414.8203125,33.796875)"/>
<path d="M0 0 C0 0.33 0 0.66 0 1 C-1.53720703 1.07347656 -1.53720703 1.07347656 -3.10546875 1.1484375 C-4.4661706 1.22351071 -5.82684644 1.29905655 -7.1875 1.375 C-7.86103516 1.4059375 -8.53457031 1.436875 -9.22851562 1.46875 C-12.13262387 1.63874658 -14.60537143 1.82464707 -17.28125 3.01367188 C-20.7326709 4.26580374 -23.60143293 4.22550261 -27.26953125 4.1953125 C-27.95053391 4.1924826 -28.63153656 4.18965271 -29.33317566 4.18673706 C-31.49313455 4.17560525 -33.65266794 4.15051457 -35.8125 4.125 C-37.28319711 4.11496111 -38.75390076 4.10583685 -40.22460938 4.09765625 C-43.81654286 4.07568913 -47.40822985 4.0412082 -51 4 C-51 3.67 -51 3.34 -51 3 C-15.31683845 -0.58165209 -15.31683845 -0.58165209 0 0 Z " fill="#ECDADA" transform="translate(543,104)"/>
<path d="M0 0 C-7.50362956 3.05820196 -15.0244213 6.06504029 -22.625 8.875 C-23.73101562 9.28492188 -24.83703125 9.69484375 -25.9765625 10.1171875 C-28.84094653 10.95355803 -31.04071697 11.18701789 -34 11 C-30.99559979 8.99706653 -29.29006055 8.50728374 -25.8125 7.875 C-24.91144531 7.70742188 -24.01039063 7.53984375 -23.08203125 7.3671875 C-22.39496094 7.24601562 -21.70789063 7.12484375 -21 7 C-21 6.34 -21 5.68 -21 5 C-19.35 5 -17.7 5 -16 5 C-16 4.34 -16 3.68 -16 3 C-15.34 3 -14.68 3 -14 3 C-13.67 2.34 -13.34 1.68 -13 1 C-10.8203125 0.33203125 -10.8203125 0.33203125 -8.125 -0.1875 C-7.24070312 -0.36667969 -6.35640625 -0.54585938 -5.4453125 -0.73046875 C-3 -1 -3 -1 0 0 Z " fill="#EFE0DF" transform="translate(477,337)"/>
<path d="M0 0 C-3.28862607 3.58782455 -7.14778765 5.21557686 -11.5 7.25 C-12.65822266 7.81460937 -12.65822266 7.81460937 -13.83984375 8.390625 C-14.58363281 8.74125 -15.32742188 9.091875 -16.09375 9.453125 C-16.77115234 9.77442383 -17.44855469 10.09572266 -18.14648438 10.42675781 C-20 11 -20 11 -23 10 C-22.38125 9.54625 -21.7625 9.0925 -21.125 8.625 C-18.94080167 7.02891081 -18.94080167 7.02891081 -17 5 C-14.375 4.875 -14.375 4.875 -12 5 C-12 4.34 -12 3.68 -12 3 C-4.71428571 -0.42857143 -4.71428571 -0.42857143 0 0 Z " fill="#E8D5D5" transform="translate(502,324)"/>
<path d="M0 0 C2 2 2 2 2.1171875 4.0234375 C2.03726563 4.79945313 1.95734375 5.57546875 1.875 6.375 C1.81054688 7.14585937 1.74609375 7.91671875 1.6796875 8.7109375 C1 11 1 11 -0.9453125 12.8984375 C-3.5425578 15.55493554 -3.96720874 17.64916019 -4.75 21.25 C-4.99234375 22.32765625 -5.2346875 23.4053125 -5.484375 24.515625 C-5.65453125 25.33546875 -5.8246875 26.1553125 -6 27 C-8.18879024 20.07404232 -4.80687428 13.31546712 -2 7 C-1.25725311 4.68062475 -0.62483921 2.35516319 0 0 Z " fill="#EAD8D8" transform="translate(236,125)"/>
<path d="M0 0 C0.66 0.33 1.32 0.66 2 1 C1.071875 1.3403125 1.071875 1.3403125 0.125 1.6875 C-2.65484445 3.40446275 -2.81269746 4.996823 -4 8 C-6.375 10.875 -6.375 10.875 -9 13 C-11.3125 12.8125 -11.3125 12.8125 -13 12 C-8.87675353 7.74790208 -4.48717034 3.86364295 0 0 Z " fill="#E9D6D7" transform="translate(285,46)"/>
<path d="M0 0 C0.9212945 3.10936893 1.38512289 5.76496771 1 9 C-0.875 12.3125 -0.875 12.3125 -3 15 C-3.66 15 -4.32 15 -5 15 C-3.97137215 9.55432314 -2.75385216 4.88182883 0 0 Z " fill="#E8D7D8" transform="translate(245,96)"/>
<path d="M0 0 C2.625 0 2.625 0 6 1 C8.31464229 3.46582388 10.1747373 6.15854494 12 9 C2.95115598 4.50439596 2.95115598 4.50439596 0 0 Z " fill="#E6D4D3" transform="translate(265,322)"/>
<path d="M0 0 C6.30214697 0.33169195 10.85216936 3.67323988 16 7 C15.01 7.495 15.01 7.495 14 8 C13.401875 7.690625 12.80375 7.38125 12.1875 7.0625 C9.6236061 5.81718011 7.81458835 5.84363398 5 6 C5 4.68 5 3.36 5 2 C3.35 1.67 1.7 1.34 0 1 C0 0.67 0 0.34 0 0 Z " fill="#F1E1E1" transform="translate(392,22)"/>
<path d="M0 0 C3.82669043 3.42388092 5.72278474 6.00724943 7 11 C4.0625 9.4375 4.0625 9.4375 1 7 C0.125 3.25 0.125 3.25 0 0 Z " fill="#EBDDDD" transform="translate(557,112)"/>
<path d="M0 0 C-2.64738916 1.4606285 -3.89448334 2 -7 2 C-7 2.66 -7 3.32 -7 4 C-9.64 4.33 -12.28 4.66 -15 5 C-15 4.34 -15 3.68 -15 3 C-9.89665983 1.094753 -5.53657294 -0.42589023 0 0 Z " fill="#D8BFBE" transform="translate(450,345)"/>
<path d="M0 0 C0.66 1.32 1.32 2.64 2 4 C0.35 5.65 -1.3 7.3 -3 9 C-3.33 8.34 -3.66 7.68 -4 7 C-3.22265625 5.2734375 -3.22265625 5.2734375 -2.0625 3.375 C-1.381875 2.26125 -0.70125 1.1475 0 0 Z " fill="#E6D1D1" transform="translate(252,83)"/>
<path d="M0 0 C-5.15400839 3.43600559 -8.77702167 4.24403837 -15 4 C-10.34714182 0.89809455 -5.58467324 -0.33846504 0 0 Z " fill="#F7ECEC" transform="translate(344,19)"/>
<path d="M0 0 C0.66 0.33 1.32 0.66 2 1 C0.02 3.97 0.02 3.97 -2 7 C-3.32 6.34 -4.64 5.68 -6 5 C-4.02 3.35 -2.04 1.7 0 0 Z " fill="#EAD9D9" transform="translate(298,36)"/>
<path d="M0 0 C3.3 0 6.6 0 10 0 C10 0.99 10 1.98 10 3 C2.25 2.25 2.25 2.25 0 0 Z " fill="#EBDADA" transform="translate(312,348)"/>
<path d="M0 0 C1.32 0 2.64 0 4 0 C3.1875 2.4375 3.1875 2.4375 2 5 C1.01 5.33 0.02 5.66 -1 6 C-1.042721 4.33388095 -1.04063832 2.66617115 -1 1 C-0.67 0.67 -0.34 0.34 0 0 Z " fill="#E7D6D4" transform="translate(558,276)"/>
<path d="M0 0 C1.65 0 3.3 0 5 0 C5.66 1.32 6.32 2.64 7 4 C4.625 3.6875 4.625 3.6875 2 3 C1.34 2.01 0.68 1.02 0 0 Z " fill="#E2CDCD" transform="translate(410,34)"/>
<path d="M0 0 C0.75 1.75 0.75 1.75 1 4 C-0.9375 6.25 -0.9375 6.25 -3 8 C-3.33 7.34 -3.66 6.68 -4 6 C-2.68 4.02 -1.36 2.04 0 0 Z " fill="#EEDCDB" transform="translate(257,75)"/>
</svg>
