<?xml version="1.0" standalone="no"?>
<!DOCTYPE svg PUBLIC "-//W3C//DTD SVG 20010904//EN"
 "http://www.w3.org/TR/2001/REC-SVG-20010904/DTD/svg10.dtd">
<svg version="1.0" xmlns="http://www.w3.org/2000/svg"
 width="666.000000pt" height="374.000000pt" viewBox="0 0 666.000000 374.000000"
 preserveAspectRatio="xMidYMid meet">

<g transform="translate(0.000000,374.000000) scale(0.100000,-0.100000)"
fill="#000000" stroke="none">
<path d="M3172 3503 c-18 -9 -39 -28 -47 -43 -19 -37 -48 -208 -41 -246 10
-49 47 -77 103 -76 64 1 97 36 107 113 4 30 14 80 22 112 13 52 13 61 -2 93
-11 23 -30 42 -50 50 -42 18 -51 17 -92 -3z"/>
<path d="M2673 3305 c-17 -7 -38 -24 -46 -37 -19 -30 -67 -210 -67 -251 1 -98
144 -133 190 -46 14 26 70 219 70 242 0 32 -31 74 -67 91 -40 19 -39 19 -80 1z"/>
<path d="M2233 3245 c-17 -7 -37 -23 -43 -35 -19 -35 -60 -191 -60 -228 0 -73
72 -118 142 -89 43 18 58 44 87 150 35 128 25 174 -45 203 -40 17 -41 17 -81
-1z"/>
<path d="M3451 3132 c-26 -26 -28 -34 -34 -146 -5 -96 -3 -125 9 -151 29 -62
113 -75 162 -25 27 27 30 37 37 124 4 53 4 114 0 136 -14 84 -116 121 -174 62z"/>
<path d="M1909 3085 c-37 -20 -93 -154 -85 -204 12 -76 93 -112 156 -69 26 17
41 41 61 93 33 83 35 107 12 146 -27 46 -94 61 -144 34z"/>
<path d="M3022 2874 c-29 -20 -58 -77 -98 -197 -38 -111 -37 -144 8 -182 39
-33 97 -34 132 -2 31 26 116 250 116 303 0 74 -96 122 -158 78z"/>
<path d="M2307 2690 c-42 -33 -60 -130 -36 -184 7 -14 28 -33 47 -42 29 -14
41 -14 73 -5 46 14 64 39 79 107 12 57 4 90 -31 123 -30 28 -97 28 -132 1z"/>
<path d="M2025 2661 c-29 -13 -46 -36 -98 -133 -63 -117 -62 -169 3 -203 77
-40 123 -11 190 118 58 110 62 150 17 194 -25 26 -81 38 -112 24z"/>
<path d="M2638 2593 c-15 -9 -31 -26 -37 -37 -23 -49 -91 -286 -91 -319 0 -53
34 -88 92 -94 71 -8 97 23 142 168 63 203 63 243 3 279 -39 24 -73 25 -109 3z"/>
<path d="M1613 2574 c-39 -19 -54 -55 -83 -197 -25 -126 -21 -158 24 -192 40
-30 70 -31 114 -5 39 24 41 30 77 189 26 118 27 125 11 158 -10 22 -29 39 -51
49 -43 18 -52 17 -92 -2z"/>
<path d="M3369 2575 c-33 -18 -47 -51 -84 -213 -18 -80 -15 -104 23 -144 53
-57 151 -28 171 50 34 129 51 201 51 220 0 79 -88 127 -161 87z"/>
<path d="M2254 2295 c-32 -22 -64 -127 -64 -211 0 -82 103 -124 167 -70 22 19
34 42 46 94 25 103 23 138 -12 173 -24 23 -38 29 -73 29 -24 0 -53 -7 -64 -15z"/>
<path d="M3688 2269 c-38 -28 -94 -198 -84 -253 12 -64 90 -95 155 -61 23 12
35 32 65 121 41 119 41 141 -4 185 -35 36 -91 39 -132 8z"/>
<path d="M1895 2183 c-45 -12 -63 -35 -94 -123 -41 -116 -40 -143 3 -186 38
-38 70 -43 116 -19 35 18 52 49 86 151 22 68 23 78 10 109 -20 48 -75 79 -121
68z"/>
<path d="M2921 2167 c-42 -21 -63 -60 -68 -129 -5 -63 -5 -65 27 -91 39 -33
95 -36 133 -7 26 20 57 95 57 136 0 76 -82 126 -149 91z"/>
<path d="M2519 1967 c-29 -20 -38 -36 -61 -112 -32 -106 -34 -147 -11 -186 23
-38 64 -52 114 -39 49 13 62 34 93 140 38 132 37 150 -3 191 -37 36 -84 39
-132 6z"/>
<path d="M3332 1953 c-45 -22 -60 -55 -72 -160 -14 -127 -14 -131 24 -169 63
-63 151 -37 175 52 18 68 25 208 12 233 -14 25 -68 61 -91 61 -8 0 -30 -8 -48
-17z"/>
<path d="M2857 1716 c-30 -28 -46 -77 -54 -163 -5 -59 -4 -63 25 -92 41 -42
98 -43 142 -3 39 36 68 161 50 217 -21 64 -113 87 -163 41z"/>
</g>
</svg>
