<?xml version="1.0" encoding="UTF-8" standalone="no"?>
<!-- Created with Inkscape (http://www.inkscape.org/) -->

<svg
   version="1.1"
   id="svg157"
   width="256"
   height="256"
   viewBox="0 0 256 256"
   sodipodi:docname="logo192_no_bg.png.svg"
   inkscape:version="1.1.2 (0a00cf5339, 2022-02-04)"
   xmlns:inkscape="http://www.inkscape.org/namespaces/inkscape"
   xmlns:sodipodi="http://sodipodi.sourceforge.net/DTD/sodipodi-0.dtd"
   xmlns="http://www.w3.org/2000/svg"
   xmlns:svg="http://www.w3.org/2000/svg">
  <defs
     id="defs161" />
  <sodipodi:namedview
     id="namedview159"
     pagecolor="#ffffff"
     bordercolor="#666666"
     borderopacity="1.0"
     inkscape:pageshadow="2"
     inkscape:pageopacity="0.0"
     inkscape:pagecheckerboard="0"
     showgrid="false"
     inkscape:zoom="3.2773438"
     inkscape:cx="127.84744"
     inkscape:cy="148.29082"
     inkscape:window-width="1920"
     inkscape:window-height="1011"
     inkscape:window-x="0"
     inkscape:window-y="32"
     inkscape:window-maximized="1"
     inkscape:current-layer="g163" />
  <g
     inkscape:groupmode="layer"
     inkscape:label="Image"
     id="g163">
    <g
       id="g321">
      <path
         style="fill:#b9b9b9;fill-opacity:1;stroke-width:1.33333"
         d="m 117,204.45029 c 0.91667,-0.36988 2.41667,-0.36988 3.33333,0 0.91667,0.36988 0.16667,0.67252 -1.66666,0.67252 -1.83334,0 -2.58334,-0.30264 -1.66667,-0.67252 z m 26.75,-0.0277 c 0.96249,-0.38516 2.11249,-0.3378 2.55556,0.1052 0.44305,0.44305 -0.34445,0.75819 -1.75,0.70029 -1.55327,-0.064 -1.8692,-0.37992 -0.80556,-0.80554 z M 45.232419,173.66667 42,170 l 3.666667,3.23241 c 3.427052,3.02119 4.278117,4.10092 3.232418,4.10092 -0.238836,0 -1.888836,-1.65 -3.666666,-3.66666 z M 225.64267,140 c 0,-2.56667 0.2744,-3.61667 0.60977,-2.33333 0.33536,1.28333 0.33536,3.38333 0,4.66666 -0.33537,1.28334 -0.60977,0.23334 -0.60977,-2.33333 z M 51.75,133.75585 c 0.9625,-0.38516 2.1125,-0.3378 2.555556,0.1052 0.443055,0.44307 -0.344445,0.75819 -1.75,0.7003 -1.553257,-0.064 -1.8692,-0.37992 -0.805556,-0.80555 z m 54.58333,-1.30556 c 0.91667,-0.36988 2.41667,-0.36988 3.33334,0 0.91666,0.36989 0.16666,0.67252 -1.66667,0.67252 -1.83333,0 -2.58333,-0.30263 -1.66667,-0.67252 z M 161.4386,81.888889 c 0.064,-1.553257 0.37992,-1.8692 0.80555,-0.805556 0.38516,0.9625 0.3378,2.1125 -0.1052,2.555556 -0.44307,0.443055 -0.75819,-0.344445 -0.7003,-1.75 z M 89.438596,79.222223 c 0.06397,-1.553258 0.379921,-1.8692 0.805556,-0.805556 0.385161,0.9625 0.337792,2.1125 -0.105267,2.555556 -0.443056,0.443054 -0.758188,-0.344446 -0.700293,-1.75 z m 107.822964,-6.88889 -4.59489,-5 5,4.59489 c 2.75,2.527189 5,4.777189 5,5 0,1.01816 -1.1283,0.059 -5.40511,-4.59489 z m -126.764967,0 C 68.838099,70.218592 68.885259,70.171432 71,71.829927 c 1.283333,1.006458 2.333333,2.056458 2.333333,2.333333 0,1.097379 -1.094914,0.391071 -2.83674,-1.829927 z m 60.069157,-12 -3.23242,-3.666666 L 131,59.899085 C 134.42705,62.920268 135.27812,64 134.23241,64 c -0.23882,0 -1.88883,-1.65 -3.66666,-3.666667 z M 96.666667,60 c 1.327314,-1.466667 2.7133,-2.666667 3.079966,-2.666667 0.366667,0 -0.419318,1.2 -1.746633,2.666667 -1.327315,1.466667 -2.7133,2.666667 -3.079967,2.666667 -0.366666,0 0.419319,-1.2 1.746634,-2.666667 z"
         id="path335" />
      <path
         style="fill:#a3a3a3;fill-opacity:1;stroke-width:1.33333"
         d="m 122.33333,204.45029 c 0.91667,-0.36988 2.41667,-0.36988 3.33334,0 0.91666,0.36988 0.16666,0.67252 -1.66667,0.67252 -1.83333,0 -2.58333,-0.30264 -1.66667,-0.67252 z m 15.35871,-0.0409 c 1.29729,-0.33805 3.09729,-0.31583 4,0.0495 0.90271,0.36524 -0.15871,0.64182 -2.35871,0.61465 -2.2,-0.0272 -2.93858,-0.326 -1.64129,-0.66405 z M 210,178.66667 C 211.32732,177.2 212.71331,176 213.07997,176 c 0.36667,0 -0.41932,1.2 -1.74664,2.66667 -1.32732,1.46666 -2.7133,2.66666 -3.07997,2.66666 -0.36667,0 0.41932,-1.2 1.74664,-2.66666 z M 76.382017,133.67989 c 4.243443,-0.2654 10.843443,-0.26293 14.666667,0.005 3.823224,0.26841 0.351316,0.48556 -7.715351,0.48254 -8.066666,-0.003 -11.194758,-0.22261 -6.951316,-0.48801 z M 51,112.41423 c 1.283333,-0.33537 3.383333,-0.33537 4.666667,0 C 56.95,112.7496 55.9,113.024 53.333333,113.024 50.766667,113.024 49.716667,112.7496 51,112.41423 Z m 62.08333,-11.99172 c 0.9625,-0.38516 2.1125,-0.33779 2.55556,0.10527 0.44305,0.44306 -0.34445,0.75819 -1.75,0.70029 -1.55326,-0.064 -1.8692,-0.37992 -0.80556,-0.80555 z m 24.50994,-23.755843 c 0.0272,-2.2 0.326,-2.938582 0.66405,-1.641291 0.33805,1.297289 0.31583,3.097289 -0.0493,4 -0.36531,0.902709 -0.6419,-0.158709 -0.61472,-2.358709 z"
         id="path333" />
      <path
         style="fill:#8c8c8c;fill-opacity:1;stroke-width:1.33333"
         d="m 129.01555,204.39032 c 1.65855,-0.31892 4.05855,-0.30681 5.33333,0.0269 1.27479,0.33372 -0.0823,0.59467 -3.01555,0.57987 -2.93333,-0.0148 -3.97633,-0.28785 -2.31778,-0.60677 z M 147.75,203.08919 c 0.96249,-0.38516 2.11249,-0.3378 2.55556,0.1052 0.44305,0.44305 -0.34445,0.75818 -1.75,0.70029 -1.55327,-0.064 -1.8692,-0.37992 -0.80556,-0.80555 z M 33.54386,150.66667 c 0,-1.83334 0.302631,-2.58334 0.672515,-1.66667 0.369882,0.91667 0.369882,2.41667 0,3.33333 C 33.846491,153.25 33.54386,152.5 33.54386,150.66667 Z M 36,142.16325 c 0,-0.27686 1.05,-1.32686 2.333333,-2.33333 2.114742,-1.65849 2.161902,-1.61133 0.503407,0.50341 C 37.094915,142.55433 36,143.26064 36,142.16325 Z m 23,-8.45158 c 2.016667,-0.30551 5.316667,-0.30551 7.333333,0 2.016667,0.30549 0.366667,0.55545 -3.666666,0.55545 -4.033334,0 -5.683334,-0.24996 -3.666667,-0.55545 z m 40,0.0359 c 1.28333,-0.33536 3.38333,-0.33536 4.66667,0 1.28333,0.33538 0.23333,0.60978 -2.33334,0.60978 -2.566663,0 -3.616663,-0.2744 -2.33333,-0.60978 z m 62.4386,-45.192001 c 0.064,-1.553257 0.37992,-1.8692 0.80555,-0.805556 0.38516,0.9625 0.3378,2.1125 -0.1052,2.555556 -0.44307,0.443055 -0.75819,-0.344445 -0.7003,-1.75 z M 51.682212,65.723652 c 1.658551,-0.318924 4.058551,-0.306816 5.333333,0.02691 1.274784,0.333724 -0.08221,0.594662 -3.015545,0.579864 -2.933333,-0.0148 -3.976337,-0.287847 -2.317788,-0.606771 z"
         id="path331" />
      <path
         style="fill:#767676;fill-opacity:1;stroke-width:1.33333"
         d="M 45.232419,172.33333 42,168.66667 l 3.666667,3.23241 C 49.093719,174.92027 49.944784,176 48.899085,176 c -0.238836,0 -1.888836,-1.65 -3.666666,-3.66667 z m 179.103821,-33 c 0.0148,-2.93333 0.28785,-3.97633 0.60677,-2.31778 0.31892,1.65854 0.30682,4.05854 -0.0269,5.33333 -0.33372,1.27479 -0.59467,-0.0823 -0.57987,-3.01555 z m -118.00291,-5.5497 c 0.91667,-0.36988 2.41667,-0.36988 3.33334,0 0.91666,0.36988 0.16666,0.67252 -1.66667,0.67252 -1.83333,0 -2.58333,-0.30264 -1.66667,-0.67252 z m 10.75,-1.36112 c 0.9625,-0.38516 2.1125,-0.33779 2.55556,0.10527 0.44305,0.44306 -0.34445,0.75819 -1.75,0.70029 -1.55326,-0.064 -1.8692,-0.37992 -0.80556,-0.80555 z m 29.58334,-8.92592 c 0,-0.27687 1.05,-1.32687 2.33333,-2.33333 2.11475,-1.65849 2.16191,-1.61133 0.50341,0.50341 -1.74182,2.22099 -2.83674,2.9273 -2.83674,1.82992 z M 152,118.16326 c 0,-0.27687 1.05,-1.32687 2.33333,-2.33333 2.11475,-1.6585 2.16191,-1.61134 0.50342,0.5034 -1.74183,2.221 -2.83675,2.92731 -2.83675,1.82993 z M 76.309337,89.333333 c 0,-2.566666 0.274394,-3.616666 0.609764,-2.333333 0.33537,1.283333 0.33537,3.383333 0,4.666667 C 76.583731,92.95 76.309337,91.9 76.309337,89.333333 Z M 90.877193,78.666667 c 0,-1.833334 0.302631,-2.583334 0.672515,-1.666667 0.369883,0.916667 0.369883,2.416667 0,3.333333 C 91.179824,81.25 90.877193,80.5 90.877193,78.666667 Z M 198.56575,75 195.33333,71.333333 199,74.565752 c 2.01667,1.777831 3.66667,3.427831 3.66667,3.666667 0,1.045698 -1.07974,0.194633 -4.10092,-3.232419 z M 69.16326,72.333333 C 67.504765,70.218592 67.551925,70.171432 69.666667,71.829927 70.95,72.836385 72,73.886385 72,74.16326 c 0,1.097379 -1.094915,0.391071 -2.83674,-1.829927 z m 122.66666,-4 c -1.65849,-2.114741 -1.61133,-2.161901 0.50341,-0.503406 2.221,1.741825 2.92731,2.83674 1.82992,2.83674 -0.27686,0 -1.32686,-1.05 -2.33333,-2.333334 z m -95.163253,-7 c 1.327314,-1.466666 2.7133,-2.666666 3.079966,-2.666666 0.366667,0 -0.419318,1.2 -1.746633,2.666666 C 96.672685,62.8 95.2867,64 94.920033,64 c -0.366666,0 0.419319,-1.2 1.746634,-2.666667 z m 32.565753,-1 L 126,56.666667 l 3.66667,3.232418 C 133.09372,62.920268 133.94479,64 132.89909,64 c -0.23884,0 -1.88884,-1.65 -3.66667,-3.666667 z m -18.81575,-6.577485 c 0.9625,-0.385161 2.1125,-0.337792 2.55555,0.105267 0.44306,0.443056 -0.34444,0.758188 -1.75,0.700293 -1.55325,-0.06397 -1.8692,-0.379921 -0.80555,-0.805556 z"
         id="path329" />
      <path
         style="fill:#606060;fill-opacity:1;stroke-width:1.33333"
         d="m 118.33333,203.11696 c 0.91667,-0.36988 2.41667,-0.36988 3.33334,0 0.91666,0.36988 0.16666,0.67252 -1.66667,0.67252 -1.83333,0 -2.58333,-0.30264 -1.66667,-0.67252 z m -9.97462,-1.37428 c 1.29729,-0.33805 3.09729,-0.31583 4,0.0495 0.90271,0.36524 -0.15871,0.64182 -2.35871,0.61465 -2.2,-0.0272 -2.93858,-0.326 -1.64129,-0.66405 z m 43.30796,0.0409 c 0.91666,-0.36988 2.41666,-0.36988 3.33333,0 0.91667,0.36988 0.16667,0.67252 -1.66667,0.67252 -1.83333,0 -2.58333,-0.30264 -1.66666,-0.67252 z m -58.333337,-3.11694 c -1.201722,-0.77662 -1.366177,-1.30066 -0.412022,-1.31292 0.873388,-0.0107 1.958797,0.57958 2.412022,1.31292 1.023074,1.65537 0.561498,1.65537 -2,0 z m 77.083337,-0.91082 c 0.96249,-0.38516 2.11249,-0.3378 2.55556,0.1052 0.44305,0.44306 -0.34446,0.75819 -1.75,0.7003 -1.55327,-0.064 -1.8692,-0.37992 -0.80556,-0.80555 z M 207.33333,180 c 1.32732,-1.46667 2.71331,-2.66667 3.07998,-2.66667 0.36666,0 -0.41932,1.2 -1.74664,2.66667 -1.32732,1.46667 -2.71331,2.66667 -3.07998,2.66667 -0.36666,0 0.41932,-1.2 1.74664,-2.66667 z M 51.829927,177.66667 c -1.658495,-2.11475 -1.611335,-2.16191 0.503406,-0.50342 1.283334,1.00647 2.333334,2.05647 2.333334,2.33334 0,1.09738 -1.094915,0.39108 -2.83674,-1.82992 z M 41.16326,167 c -1.658495,-2.11475 -1.611335,-2.16191 0.503407,-0.50341 2.220997,1.74182 2.927305,2.83674 1.829926,2.83674 -0.276874,0 -1.326874,-1.05 -2.333333,-2.33333 z M 222.9266,150 c 0.0272,-2.2 0.326,-2.93859 0.66405,-1.64129 0.33806,1.29729 0.31583,3.09729 -0.0495,4 -0.3652,0.9027 -0.64179,-0.15871 -0.61462,-2.35871 z M 121,132.45029 c 0.91667,-0.36988 2.41667,-0.36988 3.33333,0 0.91667,0.36989 0.16667,0.67252 -1.66666,0.67252 -1.83334,0 -2.58334,-0.30263 -1.66667,-0.67252 z m 101.9266,-3.78362 c 0.0272,-2.2 0.326,-2.93858 0.66405,-1.64129 0.33806,1.29729 0.31583,3.09729 -0.0495,4 -0.36518,0.90271 -0.64176,-0.15871 -0.61459,-2.35871 z M 51,111.0809 c 1.283333,-0.33537 3.383333,-0.33537 4.666667,0 1.283333,0.33537 0.233333,0.60976 -2.333334,0.60976 -2.566666,0 -3.616666,-0.27439 -2.333333,-0.60976 z m 17.666667,-5.74757 c 1.327314,-1.46666 2.7133,-2.66666 3.079966,-2.66666 0.366667,0 -0.419318,1.2 -1.746633,2.66666 C 68.672685,106.8 67.2867,108 66.920033,108 c -0.366666,0 0.419319,-1.2 1.746634,-2.66667 z m 91.543853,-4 c 0,-1.83333 0.30264,-2.58333 0.67252,-1.666663 0.36988,0.916663 0.36988,2.416663 0,3.333333 -0.36988,0.91667 -0.67252,0.16667 -0.67252,-1.66667 z m 51.20853,-6.275826 c -0.72357,-1.900264 -0.57042,-2.053416 0.7464,-0.746393 0.91123,0.904445 1.3209,1.980321 0.91038,2.390837 -0.41052,0.410517 -1.15607,-0.329483 -1.65678,-1.644444 z M 136.10527,76.555556 c 0.064,-1.553257 0.37992,-1.8692 0.80554,-0.805556 0.38516,0.9625 0.3378,2.1125 -0.1052,2.555556 -0.44306,0.443055 -0.75818,-0.344445 -0.70029,-1.75 z m 28,-1.333333 c 0.064,-1.553258 0.37992,-1.8692 0.80554,-0.805556 0.38516,0.9625 0.3378,2.1125 -0.1052,2.555556 -0.44306,0.443054 -0.75818,-0.344446 -0.70029,-1.75 z M 36.666667,73.333333 c 1.327314,-1.466666 2.7133,-2.666666 3.079966,-2.666666 0.366667,0 -0.419318,1.2 -1.746633,2.666666 C 36.672685,74.8 35.2867,76 34.920033,76 c -0.366666,0 0.419319,-1.2 1.746634,-2.666667 z M 173.09061,61.042723 c 0.71104,-0.711042 2.40654,-1.056731 3.76776,-0.768199 1.8331,0.388551 1.49782,0.723833 -1.2928,1.292804 -2.43309,0.496077 -3.30981,0.310244 -2.47496,-0.524605 z"
         id="path327" />
      <path
         style="fill:#494949;fill-opacity:1;stroke-width:1.33333"
         d="m 118.07633,203.01339 c -3.6949,-0.37838 -4.69575,-0.8852 -3.36821,-1.70567 1.181,-0.72991 -1.72163,-1.13337 -7.74591,-1.07668 -6.31345,0.0593 -10.397411,-0.53932 -11.847291,-1.73685 -1.216932,-1.00514 -3.165624,-1.88868 -4.330427,-1.96344 -7.435645,-0.47722 -7.532625,-0.51298 -5.451159,-2.01028 1.697163,-1.22084 1.652379,-1.32722 -0.295765,-0.70251 -3.011272,0.96563 -10.597272,-1.70633 -9.568849,-3.37035 0.439388,-0.71094 -0.01133,-1.18141 -1.001583,-1.04548 -3.637239,0.4993 -5.268657,-0.1052 -4.339813,-1.60814 0.549517,-0.88914 0.369568,-1.17978 -0.426028,-0.68807 C 68.06408,188.11777 60,184.34652 60,182.56901 c 0,-0.67962 -0.663387,-1.23568 -1.474192,-1.23568 -2.102309,0 -9.931187,-6.85653 -9.492772,-8.31377 0.201503,-0.66977 -0.175699,-0.88276 -0.838224,-0.47329 -1.658743,1.02516 -10.850729,-11.02284 -10.033891,-13.1515 0.362451,-0.94453 -0.275482,-2.07592 -1.417626,-2.5142 -2.794146,-1.07221 -2.7213,-9.32384 0.1206,-13.66112 1.262882,-1.9274 2.99328,-3.04792 4.06925,-2.63502 1.029612,0.39509 1.544307,0.1881 1.143764,-0.45999 C 40.574049,137.69276 46.805963,137.11088 76,136.957 l 30,-0.15815 -27.333333,-0.7737 -27.333334,-0.77372 31.333334,-0.4862 c 17.233333,-0.26742 33.240323,-0.35698 35.571083,-0.19902 2.33076,0.15795 5.73181,-0.69176 7.55789,-1.88825 1.82607,-1.19649 5.76085,-2.20912 8.74395,-2.25029 2.9831,-0.0412 5.15086,-0.5165 4.81725,-1.05629 -0.87292,-1.41242 5.90016,-4.24261 7.61575,-3.18231 0.79169,0.48929 1.10377,0.34651 0.69352,-0.31729 -0.41026,-0.6638 1.29705,-3.27763 3.79398,-5.8085 2.49695,-2.53087 4.53991,-5.11588 4.53991,-5.74445 0,-0.62858 0.69271,-0.71476 1.53935,-0.19151 0.89302,0.55193 1.17964,0.36936 0.68262,-0.43482 -1.08262,-1.75174 1.68082,-9.90996 3.06668,-9.05344 0.5659,0.34974 1.09879,-4.49204 1.1842,-10.759499 0.10094,-7.408986 0.90371,-12.972536 2.29467,-15.903777 1.17665,-2.479617 1.78337,-5.084412 1.34827,-5.788433 -1.17908,-1.907799 0.61398,-5.63906 2.22993,-4.640348 0.7698,0.475761 1.04652,0.293668 0.61493,-0.404652 -1.40088,-2.266671 1.08936,-4.455963 5.67591,-4.989988 5.42677,-0.631854 12.36759,1.556228 11.15584,3.516864 -0.50419,0.815797 -0.23673,1.017408 0.63499,0.478657 0.8407,-0.519587 4.03548,1.400723 7.23146,4.346672 C 199.6502,76.017187 208.89291,88 207.16135,88 c -0.5524,0 0.0372,0.761593 1.31017,1.692431 1.273,0.930836 2.41536,3.030836 2.53859,4.666666 0.1232,1.63583 0.6682,2.974236 1.21108,2.974236 1.23502,0 5.42306,8.690827 5.65609,11.737287 0.0952,1.24449 0.9982,3.73478 2.00665,5.53398 1.09148,1.94729 1.77428,6.80403 1.68706,12 -0.1004,5.98301 0.25214,8.09961 1.12082,6.72873 0.88232,-1.39238 1.26735,0.43048 1.26735,6 0,5.87171 -0.36324,7.46792 -1.36539,6 -1.02814,-1.50601 -1.32053,-0.68269 -1.18373,3.33334 0.31181,9.15386 -0.012,11.07764 -2.23544,13.30158 -1.18729,1.18731 -1.81099,2.50648 -1.38596,2.9315 1.12267,1.12266 -6.34067,11.5391 -11.19332,15.62236 -2.28495,1.92264 -4.79635,3.09901 -5.58089,2.61413 -0.80283,-0.49617 -1.0413,-0.2584 -0.54547,0.54387 1.13908,1.84305 -7.92616,7.47941 -9.98399,6.2076 -0.89013,-0.55014 -1.20933,-0.39308 -0.74105,0.36461 1.01151,1.63665 -7.80984,4.50616 -10.86403,3.53396 -1.90098,-0.60511 -1.93108,-0.50153 -0.21322,0.73419 2.08146,1.4973 1.98449,1.53306 -5.45116,2.01028 -1.1648,0.0748 -3.09716,0.94474 -4.29414,1.93332 -1.4102,1.16466 -5.82769,1.80113 -12.54884,1.80801 -5.86549,0.007 -9.23812,0.43357 -7.76178,0.98403 5.39697,2.01225 -16.01247,3.24438 -30.53442,1.75728 z M 164.91081,85.083333 c -0.42562,-1.063644 -0.74157,-0.747701 -0.80554,0.805556 -0.0579,1.405555 0.25722,2.193055 0.70029,1.75 0.44305,-0.443056 0.49041,-1.593056 0.1052,-2.555556 z M 41.782117,107.9197 c -5.351908,-3.42851 -8.673081,-8.450424 -7.540494,-11.401899 0.59588,-1.552837 0.376721,-1.978648 -0.681704,-1.324505 -0.857956,0.530245 -1.636492,0.478672 -1.730083,-0.1146 -1.276113,-8.089413 -0.379624,-14.242523 1.872313,-12.850748 0.885163,0.54706 1.100772,0.05031 0.573996,-1.322445 -0.998321,-2.601584 7.319684,-12.391355 9.423644,-11.091036 0.744766,0.460289 1.698158,-0.05967 2.118651,-1.155452 1.049297,-2.734424 13.254847,-2.728579 15.991084,0.0076 1.1,1.1 2.899309,2 3.998464,2 2.846063,0 7.537303,6.417405 6.557592,8.970492 -0.506891,1.320934 -0.277797,1.7993 0.601455,1.255892 C 74.831548,79.74072 76,82.992347 76,89.333333 c 0,6.318366 -1.167133,9.59343 -3.012391,8.452998 -0.842826,-0.520896 -1.000781,-0.219666 -0.397048,0.757196 0.62287,1.007822 -1.08781,3.610763 -4.516797,6.872673 -5.217592,4.96338 -5.971964,5.24924 -13.796573,5.228 -6.00818,-0.0163 -9.433431,-0.76316 -12.495074,-2.7245 z m 20.523439,0.60808 C 61.8625,108.08472 60.7125,108.03735 59.75,108.42251 c -1.063644,0.42564 -0.747701,0.74158 0.805556,0.80556 1.405555,0.0579 2.193055,-0.25724 1.75,-0.7003 z M 107.29667,98.157871 c -1.4465,-1.013172 -3.23,-2.063172 -3.96334,-2.333334 -0.73333,-0.270162 -1.19053,-0.91961 -1.01599,-1.44322 0.17453,-0.523608 -0.5241,-0.629124 -1.55253,-0.23448 -1.20003,0.460495 -3.104851,-1.3898 -5.317339,-5.165128 -4.001043,-6.827262 -4.809482,-18.191488 -1.490099,-20.946332 1.076556,-0.893461 1.826556,-2.316928 1.666667,-3.16326 -0.159888,-0.84633 0.503892,-1.373918 1.475068,-1.172414 0.971174,0.201502 1.427781,-0.180514 1.01468,-0.848926 -0.921502,-1.491021 2.453263,-4.505952 3.675563,-3.283653 0.48252,0.482527 0.87732,0.113127 0.87732,-0.820887 0,-0.986986 0.86661,-1.365656 2.06925,-0.904161 1.13809,0.436725 1.74223,0.264923 1.34255,-0.381784 -2.16995,-3.511048 16.32865,-2.747204 18.92153,0.781308 0.91667,1.247444 1.66667,1.760409 1.66667,1.139923 0,-1.853538 5.46205,3.666482 7.46984,7.549117 2.58221,4.993456 2.49352,18.24462 -0.1288,19.25092 -1.09579,0.420493 -1.72081,1.203881 -1.38894,1.740863 1.09587,1.773153 -3.50088,6.946854 -5.49297,6.182416 -1.062,-0.407528 -1.57556,-0.165991 -1.14125,0.536749 C 126.97551,96.245071 118.20394,100 113.46718,100 c -1.94727,0 -4.724,-0.828959 -6.17051,-1.842129 z m 9.71888,-0.407311 c -1.27479,-0.333724 -3.67479,-0.345832 -5.33334,-0.02691 -1.65855,0.318923 -0.61554,0.59197 2.31779,0.60677 2.93333,0.0148 4.29033,-0.24614 3.01555,-0.579863 z M 94.244152,70.416667 c -0.425635,-1.063644 -0.741577,-0.747702 -0.805556,0.805556 -0.05789,1.405554 0.257237,2.193054 0.700293,1.75 0.443055,-0.443056 0.490424,-1.593056 0.105267,-2.555556 z"
         id="path325" />
      <path
         style="fill:#333333;fill-opacity:1;stroke-width:1.33333"
         d="m 109.01555,200.39032 c 1.65855,-0.31892 4.05855,-0.30681 5.33333,0.0269 1.27478,0.33372 -0.0822,0.59467 -3.01555,0.57987 -2.93333,-0.0148 -3.97633,-0.28785 -2.31778,-0.60677 z m 40,0 c 1.65854,-0.31892 4.05854,-0.30681 5.33333,0.0269 1.27479,0.33372 -0.0823,0.59467 -3.01555,0.57987 -2.93333,-0.0148 -3.97633,-0.28785 -2.31778,-0.60677 z m 72.65402,-51.72365 c 0.0148,-2.93334 0.28786,-3.97634 0.60678,-2.31779 0.31892,1.65855 0.30681,4.05855 -0.0269,5.33333 -0.33372,1.27479 -0.59466,-0.0823 -0.57986,-3.01554 z M 64.333333,136.33839 c 7.883334,-0.23574 20.783334,-0.23574 28.666667,0 7.88333,0.23572 1.433333,0.4286 -14.333333,0.4286 -15.766667,0 -22.216667,-0.19288 -14.333334,-0.4286 z m 53.333337,-2.59083 c 1.28333,-0.33536 3.38333,-0.33536 4.66666,0 1.28334,0.33537 0.23334,0.60977 -2.33333,0.60977 -2.56667,0 -3.61667,-0.2744 -2.33333,-0.60977 z M 221.66957,130 c 0.0148,-2.93333 0.28786,-3.97634 0.60678,-2.31779 0.31892,1.65855 0.30681,4.05855 -0.0269,5.33334 -0.33369,1.27478 -0.59464,-0.0822 -0.57984,-3.01555 z m -84.58624,-0.24415 c 0.9625,-0.38516 2.1125,-0.33779 2.55556,0.10526 0.44306,0.44306 -0.34445,0.75819 -1.75,0.7003 -1.55326,-0.064 -1.8692,-0.37992 -0.80556,-0.80556 z M 59.75,108.42251 c 0.9625,-0.38516 2.1125,-0.33779 2.555556,0.10527 0.443055,0.44306 -0.344445,0.75819 -1.75,0.70029 -1.553257,-0.064 -1.8692,-0.37992 -0.805556,-0.80555 z M 161.59327,102 c 0.0272,-2.2 0.326,-2.938581 0.66405,-1.64129 0.33805,1.29729 0.31583,3.09729 -0.0493,4 C 161.84271,105.26142 161.56612,104.2 161.5933,102 Z m -49.91106,-4.276348 c 1.65855,-0.318924 4.05855,-0.306816 5.33334,0.02691 1.27478,0.333724 -0.0822,0.594662 -3.01555,0.579864 -2.93333,-0.0148 -3.97634,-0.287847 -2.31779,-0.606771 z m 52.42306,-11.834763 c 0.064,-1.553257 0.37992,-1.8692 0.80554,-0.805556 0.38516,0.9625 0.3378,2.1125 -0.1052,2.555556 -0.44306,0.443055 -0.75818,-0.344445 -0.70029,-1.75 z m 1.33333,-12 c 0.064,-1.553257 0.37992,-1.8692 0.80555,-0.805556 0.38516,0.9625 0.3378,2.1125 -0.1052,2.555556 -0.44307,0.443055 -0.75819,-0.344445 -0.7003,-1.75 z M 93.438596,71.222223 c 0.06397,-1.553258 0.379921,-1.8692 0.805556,-0.805556 0.385161,0.9625 0.337792,2.1125 -0.105267,2.555556 -0.443056,0.443054 -0.758188,-0.344446 -0.700293,-1.75 z"
         id="path323" />
    </g>
  </g>
</svg>
