<?xml version="1.0" encoding="UTF-8"?>
<svg version="1.1" xmlns="http://www.w3.org/2000/svg" width="666" height="374">
<path d="M0 0 C0.71027344 0.19335938 1.42054688 0.38671875 2.15234375 0.5859375 C11.71017763 3.59597107 18.9118655 10.61581577 25.234375 18.08203125 C28.45241214 21.57773088 31.76920624 22.66863245 36.25 23.875 C40.42978724 24.01432624 43.27519354 23.13402171 47.19921875 21.8359375 C61.61912358 17.53208864 79.13488598 16.95640483 92.859375 23.8046875 C109.62898543 32.90713563 121.39109872 46.91632309 126.98828125 65.234375 C129.09274976 73.25329766 130.1949492 81.09428726 130.1875 89.375 C130.18814453 90.12305908 130.18878906 90.87111816 130.18945312 91.6418457 C130.13783803 97.03503694 129.37124516 101.77212781 128 107 C127.44643879 112.09276317 128.87463001 116.35042017 130.265625 121.19921875 C131.29519243 125.12581367 131.76633115 128.95460803 132 133 C132.061875 134.04027344 132.061875 134.04027344 132.125 135.1015625 C132.67888045 154.14120307 126.24388141 172.18880245 113.375 186.1875 C100.00653122 198.72043948 82.84699724 205.30203231 64.75 206.8125 C57.82950225 207.49812433 51.13458992 208.67815387 44.375 210.3125 C43.15055176 210.59540894 43.15055176 210.59540894 41.90136719 210.8840332 C36.89705911 212.15566179 32.97202115 213.97642974 28.71337891 216.90307617 C27 218 27 218 24 219 C22.75716279 222.14174127 22.8475397 225.38155964 22.7890625 228.7265625 C22.76070312 229.84160156 22.73234375 230.95664062 22.703125 232.10546875 C22.65156526 234.42823506 22.60714449 236.75117223 22.5703125 239.07421875 C22.18074175 253.21239057 17.81064665 264.64431742 8 275 C7.34 275 6.68 275 6 275 C6 275.66 6 276.32 6 277 C-5.84631951 287.71656152 -18.97152068 293.63603302 -35.05078125 293.24609375 C-45.45944835 292.37755597 -54.26179273 289.72642949 -63 284 C-63.80308594 283.4740625 -64.60617188 282.948125 -65.43359375 282.40625 C-71.36589759 278.16460273 -75.16892675 273.15172337 -79 267 C-79.40089844 266.40316406 -79.80179688 265.80632812 -80.21484375 265.19140625 C-85.16637491 257.39975155 -86.30356212 248.02742179 -87.375 239.04296875 C-88.36217595 234.23665583 -89.70284992 231.02447589 -93.6015625 227.9453125 C-94.59929687 227.34460938 -95.59703125 226.74390625 -96.625 226.125 C-102.20348579 222.59603089 -107.48539261 218.85662311 -112 214 C-112 213.34 -112 212.68 -112 212 C-112.99 211.67 -113.98 211.34 -115 211 C-121.02621447 202.584774 -123.34859174 194.29962488 -124 184 C-124.05800781 183.12601563 -124.11601562 182.25203125 -124.17578125 181.3515625 C-124.45834293 172.16087202 -123.28537637 163.16262165 -119 155 C-119.20938629 152.20818281 -119.92750887 150.1698838 -121.0234375 147.6015625 C-124.20722219 135.85976458 -124.03169234 120.03976928 -118.2890625 109.1640625 C-117.86367187 108.44992188 -117.43828125 107.73578125 -117 107 C-116.525625 105.906875 -116.05125 104.81375 -115.5625 103.6875 C-108.57308286 91.66570252 -96.22283 83.73218858 -82.9453125 80.18359375 C-80.63280351 79.71519604 -78.33893668 79.30622647 -76 79 C-76 78.34 -76 77.68 -76 77 C-75.236875 76.505 -74.47375 76.01 -73.6875 75.5 C-69.83048398 71.91207812 -68.82641627 68.13287904 -68 63 C-68.04299369 60.69788353 -68.30579287 58.54303113 -68.66015625 56.26953125 C-70.51599785 43.87592242 -67.19324427 29.81315449 -60.2578125 19.37890625 C-58.57995343 17.14756255 -56.95503921 14.99356215 -55 13 C-54.34 13 -53.68 13 -53 13 C-52.75894531 12.4121875 -52.51789063 11.824375 -52.26953125 11.21875 C-48.04236392 3.83096218 -38.78589013 0.90979646 -31.078125 -1.2734375 C-19.98967364 -3.89076231 -10.89136298 -3.24165741 0 0 Z M124 119 C123.6596875 119.53367187 123.319375 120.06734375 122.96875 120.6171875 C115.45095955 132.1737909 107.47707119 143.14339777 94 148 C94 148.66 94 149.32 94 150 C93.319375 150.12890625 92.63875 150.2578125 91.9375 150.390625 C89.88638297 150.81612268 87.84474115 151.28881471 85.8125 151.796875 C75.10064994 154.47483751 64.33008676 156.38583089 53.41796875 158.07324219 C42.30567998 159.87401211 30.08387911 162.52361256 22.0625 171.0625 C19.98797904 174.84544998 19.87203174 178.42917024 19.82421875 182.69140625 C19.80037109 183.80193359 19.77652344 184.91246094 19.75195312 186.05664062 C19.70949036 188.36635754 19.67796943 190.67630548 19.65820312 192.98632812 C19.46640662 200.73401502 18.06619399 206.90088435 15 214 C14.33036636 215.66547681 13.66284796 217.33181092 13 219 C12.34 219 11.68 219 11 219 C10.62875 219.680625 10.2575 220.36125 9.875 221.0625 C6.52955207 226.30370176 1.66713427 230.42633499 -4 233 C-4 233.66 -4 234.32 -4 235 C-17.72349284 242.21406103 -31.88640932 244.99189452 -47 241 C-62.04621015 236.0740433 -72.46919773 227.872315 -79.67211914 213.8269043 C-81.90650206 209.01772698 -82.6805479 204.50663509 -83.125 199.25 C-83.80661845 191.24544409 -84.86986395 184.5308331 -91.234375 179.08984375 C-93.77117644 177.29753838 -96.36820616 175.64878751 -99 174 C-104.8110283 169.85591732 -109.55211085 165.58837355 -114 160 C-116.22968861 160.83155379 -116.22968861 160.83155379 -116.8515625 163.265625 C-120.46042632 177.19073591 -120.07022778 190.19595766 -113.3515625 203.1875 C-110.36856255 208.08535145 -107.5709775 211.50838169 -103 215 C-102.27103516 215.76183594 -102.27103516 215.76183594 -101.52734375 216.5390625 C-98.66631952 219.27569437 -95.0779036 221.06786153 -91.69140625 223.0859375 C-87.85551928 225.81392678 -85.58808513 229.1178723 -83 233 C-82.68871973 235.40953987 -82.44940664 237.8286337 -82.25 240.25 C-80.67801065 254.88467069 -74.98220045 267.52856721 -63.4453125 277.125 C-58.88366543 280.45264528 -54.33668704 283.09404034 -49 285 C-48.27554688 285.27714844 -47.55109375 285.55429687 -46.8046875 285.83984375 C-35.38578762 289.82360785 -24.02108316 288.80691996 -13 284 C-9.469084 281.88897299 -6.23439343 279.53506512 -3 277 C-2.01 276.34 -1.02 275.68 0 275 C0 274.34 0 273.68 0 273 C0.59941406 272.73445312 1.19882812 272.46890625 1.81640625 272.1953125 C7.89283153 268.86904034 13.55741984 260.65999655 15.58618164 254.10644531 C17.30797046 247.29758738 17.1028119 240.78563304 16.83398438 233.81640625 C16.68213001 226.68448756 17.8293897 220.85189227 21.3515625 214.6015625 C23.49554678 212.5185446 25.62828471 211.54141334 28.375 210.375 C29.31085938 209.97023438 30.24671875 209.56546875 31.2109375 209.1484375 C32.13132812 208.76945312 33.05171875 208.39046875 34 208 C34.69996094 207.67902344 35.39992188 207.35804688 36.12109375 207.02734375 C39.97127811 205.65339736 43.82359986 205.05806048 47.8515625 204.4140625 C49.60811639 204.12005131 51.36462539 203.82577177 53.12109375 203.53125 C55.86509983 203.07774374 58.60956292 202.62750152 61.35498047 202.18261719 C79.17723988 199.27929806 99.50968868 195.32041509 111 180 C111.66 179.67 112.32 179.34 113 179 C113 178.01 113 177.02 113 176 C113.66 176 114.32 176 115 176 C122.70830689 162.48476858 126.17970894 152.51978638 126.1875 137 C126.19974609 135.71609375 126.21199219 134.4321875 126.22460938 133.109375 C126.22654297 131.87703125 126.22847656 130.6446875 126.23046875 129.375 C126.23457764 128.24835938 126.23868652 127.12171875 126.24291992 125.9609375 C126.00671446 123.08184219 125.49779324 121.43386763 124 119 Z " fill="#9ABEF9" transform="translate(298,57)"/>
<path d="M0 0 C2 1 2 1 3 3 C1.02 3 -0.96 3 -3 3 C-3 3.66 -3 4.32 -3 5 C-3.7425 5.433125 -4.485 5.86625 -5.25 6.3125 C-8.30725265 8.1885414 -9.80664356 10.18976207 -12 13 C-12.825 13.515625 -13.65 14.03125 -14.5 14.5625 C-17.95501804 17.93114259 -18.76425126 21.55915324 -20.10546875 26.125 C-21.27795061 29.89332596 -22.81236009 32.71854013 -25 36 C-25.43165301 39.17121077 -25.33162773 42.36498127 -25.3125 45.5625 C-25.30976074 46.46621338 -25.30702148 47.36992676 -25.30419922 48.30102539 C-25.20482995 54.63267545 -24.50514091 60.13400172 -22 66 C-21.67 66.99 -21.34 67.98 -21 69 C-20.04134491 71.33075929 -20.04134491 71.33075929 -17 73 C-17.33 74.32 -17.66 75.64 -18 77 C-18.66 76.67 -19.32 76.34 -20 76 C-24.43119441 90.63876726 -24.52002846 104.3262009 -17.3515625 118.1875 C-14.3510006 123.11418678 -11.50420812 126.39972387 -7 130 C-7 130.66 -7 131.32 -7 132 C-6.26910156 132.27199219 -5.53820312 132.54398438 -4.78515625 132.82421875 C3.09533128 136.15104448 8.30118871 140.95178307 13 148 C13.31128027 150.40953987 13.55059336 152.8286337 13.75 155.25 C15.34236866 170.07439499 21.14460842 182.56398324 32.75390625 192.3125 C43.48170028 200.08336545 55.80040824 203.55007312 69 202 C78.02886932 200.22158635 84.89167849 196.76251193 92 191 C92.69738281 190.46503906 93.39476562 189.93007813 94.11328125 189.37890625 C102.79671489 182.34785416 109.75997948 173.31518725 111 162 C111.10879417 157.56482439 111.07185037 153.13244714 110.890625 148.69970703 C110.67420294 141.45903657 112.02484186 135.62112326 115.5 129.25 C119.4349668 125.70852988 124.13058674 123.96848621 129 122 C129.69923584 121.67974854 130.39847168 121.35949707 131.11889648 121.02954102 C134.96979994 119.65344917 138.82227074 119.05827299 142.8515625 118.4140625 C144.60811639 118.12005131 146.36462539 117.82577177 148.12109375 117.53125 C150.86509983 117.07774374 153.60956292 116.62750152 156.35498047 116.18261719 C171.00772173 113.83145687 171.00772173 113.83145687 185 109 C186.01835937 108.5565625 187.03671875 108.113125 188.0859375 107.65625 C192.46654032 105.4435223 196.22823791 103.18242426 200 100 C200.66 100 201.32 100 202 100 C202.2475 99.38125 202.495 98.7625 202.75 98.125 C204.20628639 95.64931313 205.37812506 95.04874998 208 94 C208 93.01 208 92.02 208 91 C208.66 91 209.32 91 210 91 C210.41958984 89.90751953 210.41958984 89.90751953 210.84765625 88.79296875 C212.24759504 85.39989676 213.95050276 82.22084908 215.68359375 78.98828125 C219.97486599 69.24696593 220.37871768 60.34747546 220.1875 49.875 C220.17241768 48.42709734 220.15873558 46.97917938 220.14648438 45.53125 C220.11377849 42.02051006 220.06219511 38.51035601 220 35 C220.33 35 220.66 35 221 35 C221.33 32.69 221.66 30.38 222 28 C227.32634729 33.32634729 226.9896022 45.02013386 227.1875 52.25 C226.86808849 70.7119855 220.91042507 87.5515344 208.375 101.1875 C195.00653122 113.72043948 177.84699724 120.30203231 159.75 121.8125 C152.82950225 122.49812433 146.13458992 123.67815387 139.375 125.3125 C138.55870117 125.50110596 137.74240234 125.68971191 136.90136719 125.8840332 C131.89705911 127.15566179 127.97202115 128.97642974 123.71337891 131.90307617 C122 133 122 133 119 134 C117.75716279 137.14174127 117.8475397 140.38155964 117.7890625 143.7265625 C117.76070312 144.84160156 117.73234375 145.95664062 117.703125 147.10546875 C117.65156526 149.42823506 117.60714449 151.75117223 117.5703125 154.07421875 C117.18074175 168.21239057 112.81064665 179.64431742 103 190 C102.34 190 101.68 190 101 190 C101 190.66 101 191.32 101 192 C89.15368049 202.71656152 76.02847932 208.63603302 59.94921875 208.24609375 C49.54055165 207.37755597 40.73820727 204.72642949 32 199 C31.19691406 198.4740625 30.39382812 197.948125 29.56640625 197.40625 C23.63410241 193.16460273 19.83107325 188.15172337 16 182 C15.59910156 181.40316406 15.19820312 180.80632812 14.78515625 180.19140625 C9.83362509 172.39975155 8.69643788 163.02742179 7.625 154.04296875 C6.63782405 149.23665583 5.29715008 146.02447589 1.3984375 142.9453125 C0.40070313 142.34460938 -0.59703125 141.74390625 -1.625 141.125 C-7.20348579 137.59603089 -12.48539261 133.85662311 -17 129 C-17 128.34 -17 127.68 -17 127 C-17.99 126.67 -18.98 126.34 -20 126 C-26.02621447 117.584774 -28.34859174 109.29962488 -29 99 C-29.05800781 98.12601562 -29.11601562 97.25203125 -29.17578125 96.3515625 C-29.45834293 87.16087202 -28.28537637 78.16262165 -24 70 C-24.20938629 67.20818281 -24.92750887 65.1698838 -26.0234375 62.6015625 C-29.20722219 50.85976458 -29.03169234 35.03976928 -23.2890625 24.1640625 C-22.86367187 23.44992188 -22.43828125 22.73578125 -22 22 C-21.525625 20.906875 -21.05125 19.81375 -20.5625 18.6875 C-16.02160691 10.87716388 -8.49382824 3.38677962 0 0 Z " fill="#CEDFF7" transform="translate(203,142)"/>
<path d="M0 0 C0.99 0.66 1.98 1.32 3 2 C0 4 0 4 -3 4 C-3.33 4.99 -3.66 5.98 -4 7 C-6.50289026 8.03493745 -8.84302904 8.83482774 -11.4375 9.5625 C-12.19957764 9.78228516 -12.96165527 10.00207031 -13.74682617 10.22851562 C-19.08774821 11.6843855 -24.30602857 12.51238722 -29.8125 13 C-36.56381165 13.60288849 -43.0350729 14.71464577 -49.625 16.3125 C-50.44202393 16.50134766 -51.25904785 16.69019531 -52.10083008 16.88476562 C-57.10437267 18.15583307 -61.02875663 19.97696425 -65.28662109 22.90307617 C-67 24 -67 24 -70 25 C-70.73323796 27.01508358 -70.73323796 27.01508358 -71 29 C-71.66 29 -72.32 29 -73 29 C-73 36.92 -73 44.84 -73 53 C-73.99 52.67 -74.98 52.34 -76 52 C-76.05834395 48.12506384 -76.09371201 44.25024164 -76.125 40.375 C-76.14175781 39.28058594 -76.15851563 38.18617188 -76.17578125 37.05859375 C-76.21916513 29.90025356 -76.22608419 23.46471817 -71 18 C-68.4765625 16.5859375 -68.4765625 16.5859375 -65.625 15.375 C-64.22121094 14.76785156 -64.22121094 14.76785156 -62.7890625 14.1484375 C-61.86867188 13.76945312 -60.94828125 13.39046875 -60 13 C-59.29858887 12.67974854 -58.59717773 12.35949707 -57.87451172 12.02954102 C-54.04899558 10.6593863 -50.21977049 10.03908859 -46.21875 9.37890625 C-45.3688147 9.23347885 -44.51887939 9.08805145 -43.64318848 8.93821716 C-40.92965226 8.4744037 -38.21497483 8.01781083 -35.5 7.5625 C-17.2672314 5.39758386 -17.2672314 5.39758386 0 0 Z " fill="#BCD2F3" transform="translate(392,251)"/>
<path d="M0 0 C1.0394775 3.1184325 1.11494838 5.27475586 1.09765625 8.54296875 C1.09443359 9.61611328 1.09121094 10.68925781 1.08789062 11.79492188 C1.07532227 13.47424805 1.07532227 13.47424805 1.0625 15.1875 C1.05798828 16.31865234 1.05347656 17.44980469 1.04882812 18.61523438 C1.03703498 21.41020927 1.0205765 24.2050782 1 27 C1.66 27.33 2.32 27.66 3 28 C3 20.08 3 12.16 3 4 C3.33 4 3.66 4 4 4 C4.08813808 8.12486211 4.14077078 12.24947739 4.1875 16.375 C4.21263672 17.53128906 4.23777344 18.68757813 4.26367188 19.87890625 C4.38460803 34.14937293 -0.13196614 45.58374204 -10 56 C-10.66 56 -11.32 56 -12 56 C-12 56.66 -12 57.32 -12 58 C-19.59087894 64.86695316 -29.45681031 72.49038092 -40 72 C-39.401875 71.71125 -38.80375 71.4225 -38.1875 71.125 C-35.80672208 69.95257974 -35.80672208 69.95257974 -33 68 C-38.445 68.495 -38.445 68.495 -44 69 C-41.10206479 67.55103239 -38.45172392 66.40993573 -35.4375 65.3125 C-22.1638877 60.05018033 -10.21351226 50.08107845 -4 37 C-2.01938819 30.41776383 -1.80327506 24.20135546 -2 17.375 C-2.17829687 11.13460951 -2.07813067 5.92591949 0 0 Z " fill="#C2D8F5" transform="translate(316,276)"/>
<path d="M0 0 C5.32634729 5.32634729 4.9896022 17.02013386 5.1875 24.25 C5.0878283 32.35188567 3.71975643 40.37782548 1 48 C0.34 48 -0.32 48 -1 48 C-1.144375 48.763125 -1.28875 49.52625 -1.4375 50.3125 C-2 53 -2 53 -3 56 C-3.66 56 -4.32 56 -5 56 C-4.88399745 54.31185763 -4.75668975 52.62449113 -4.625 50.9375 C-4.55539062 49.99777344 -4.48578125 49.05804688 -4.4140625 48.08984375 C-4 45 -4 45 -2.98632812 41.7734375 C-1.96059867 37.84926066 -1.77110222 34.58218282 -1.8046875 30.53515625 C-1.80893234 29.51789711 -1.80893234 29.51789711 -1.81326294 28.48008728 C-1.82434584 26.34070234 -1.8494264 24.2017557 -1.875 22.0625 C-1.88504524 20.60091756 -1.89416837 19.13932847 -1.90234375 17.67773438 C-1.92424575 14.11835021 -1.95869134 10.55921797 -2 7 C-1.67 7 -1.34 7 -1 7 C-0.67 4.69 -0.34 2.38 0 0 Z " fill="#B9D0F2" transform="translate(425,170)"/>
<path d="M0 0 C-5.75 3 -5.75 3 -8 3 C-8 3.66 -8 4.32 -8 5 C-19.2471759 8.84522111 -30.33515306 11.38163891 -42.0625 13.25 C-43.61670638 13.50678616 -45.17074401 13.76459577 -46.72460938 14.0234375 C-53.14029234 15.08531179 -59.55993703 16.09646099 -66 17 C-62.55549263 14.70366176 -60.06187717 14.45983515 -56 14 C-55.67 13.01 -55.34 12.02 -55 11 C-52.41697394 10.68477289 -49.83364153 10.37261329 -47.25 10.0625 C-46.47519287 9.9682373 -45.70038574 9.87397461 -44.90209961 9.77685547 C-40.45402559 9.24748725 -36.03731736 8.86482681 -31.5625 8.625 C-25.96381436 8.19968548 -20.92398705 6.73554836 -16 4 C-15.67 3.34 -15.34 2.68 -15 2 C-13.34817245 1.59955696 -11.67557379 1.28520405 -10 1 C-8.60267619 0.63059256 -7.20690105 0.2552912 -5.8125 -0.125 C-2 -1 -2 -1 0 0 Z " fill="#C4D8F5" transform="translate(400,202)"/>
<path d="M0 0 C0 0.33 0 0.66 0 1 C-7.92 0.67 -15.84 0.34 -24 0 C-24 0.99 -24 1.98 -24 3 C-24.73863281 3.13535156 -25.47726562 3.27070312 -26.23828125 3.41015625 C-34.71406675 5.20870286 -42.44671898 8.34797313 -48.62109375 14.65625 C-50 16 -50 16 -53 17 C-54.90708363 19.54540823 -54.90708363 19.54540823 -56.6875 22.5625 C-57.31011719 23.57441406 -57.93273437 24.58632812 -58.57421875 25.62890625 C-59.04472656 26.41136719 -59.51523438 27.19382812 -60 28 C-60.33 27.01 -60.66 26.02 -61 25 C-59.41796875 22.30078125 -59.41796875 22.30078125 -57.1875 19.3125 C-56.45917969 18.31863281 -55.73085937 17.32476562 -54.98046875 16.30078125 C-54.32691406 15.54152344 -53.67335937 14.78226563 -53 14 C-52.34 14 -51.68 14 -51 14 C-50.75894531 13.4121875 -50.51789063 12.824375 -50.26953125 12.21875 C-46.04236392 4.83096218 -36.78589013 1.90979646 -29.078125 -0.2734375 C-18.97169344 -2.65896576 -10.07069256 -2.39982461 0 0 Z " fill="#D0E0F6" transform="translate(296,56)"/>
<path d="M0 0 C2 1 2 1 3 3 C1.02 3 -0.96 3 -3 3 C-3 3.66 -3 4.32 -3 5 C-3.7425 5.433125 -4.485 5.86625 -5.25 6.3125 C-8.30725265 8.1885414 -9.80664356 10.18976207 -12 13 C-12.825 13.515625 -13.65 14.03125 -14.5 14.5625 C-17.95501804 17.93114259 -18.76425126 21.55915324 -20.10546875 26.125 C-21.27795061 29.89332596 -22.81236009 32.71854013 -25 36 C-25.43166327 39.17128616 -25.33075537 42.36491307 -25.3125 45.5625 C-25.31193604 46.46766357 -25.31137207 47.37282715 -25.31079102 48.30541992 C-25.23309863 53.94243392 -24.60438048 58.7081576 -22.609375 64.015625 C-21.59697777 67.31240571 -22.09000077 69.7100028 -23 73 C-23.99 73.495 -23.99 73.495 -25 74 C-24.773125 73.01 -24.54625 72.02 -24.3125 71 C-23.82565713 67.690945 -24.07384065 66.822464 -25.44921875 63.515625 C-27.62524984 58.02443246 -27.53276217 52.59171396 -27.5 46.75 C-27.49718018 45.63842529 -27.49436035 44.52685059 -27.49145508 43.3815918 C-27.32881184 35.15208577 -26.25456651 29.14251469 -22 22 C-21.525625 20.906875 -21.05125 19.81375 -20.5625 18.6875 C-16.02160691 10.87716388 -8.49382824 3.38677962 0 0 Z " fill="#DCEBFB" transform="translate(203,142)"/>
<path d="M0 0 C2.15302558 2.15302558 2.93732602 3.86864372 4.1875 6.625 C7.56009174 13.52983279 12.49347987 18.71374068 18 24 C13.25 22.125 13.25 22.125 11 21 C10.67 21.66 10.34 22.32 10 23 C4.92006553 21.30668851 2.83847943 16.35104783 0 12 C-0.68255859 10.97132813 -0.68255859 10.97132813 -1.37890625 9.921875 C-4.06349267 5.61905356 -4.06349267 5.61905356 -3.75 2.5625 C-3.5025 2.046875 -3.255 1.53125 -3 1 C-2.34 3.31 -1.68 5.62 -1 8 C-0.34 8 0.32 8 1 8 C0.67 5.36 0.34 2.72 0 0 Z " fill="#DDE9FB" transform="translate(219,312)"/>
<path d="M0 0 C2.52588702 2.36292656 3.88820837 3.66462511 5 7 C5.66 6.67 6.32 6.34 7 6 C7.66 12.27 8.32 18.54 9 25 C9.66 25 10.32 25 11 25 C12.42944945 27.35438733 13.08661261 28.48032433 12.625 31.25 C12.41875 31.8275 12.2125 32.405 12 33 C12.66 33.33 13.32 33.66 14 34 C15.98128683 36.93230451 17.35389319 39.51102321 18 43 C17.01 43 16.02 43 15 43 C12.95420912 40.58866028 11.54917981 37.74931602 10 35 C9.62359375 34.43410156 9.2471875 33.86820312 8.859375 33.28515625 C5.5963741 27.91581522 5.35244076 22.35235606 4.79272461 16.234375 C4.23408027 10.69085703 2.93596274 6.79540581 0 2 C0 1.34 0 0.68 0 0 Z " fill="#C9DBF6" transform="translate(209,238)"/>
<path d="M0 0 C0 3.66978352 -0.61801464 4.07605673 -3.125 6.625 C-6.87989504 10.23858178 -10.914954 13.19918011 -15.25 16.0625 C-15.85215332 16.46871582 -16.45430664 16.87493164 -17.07470703 17.29345703 C-21.41994997 20.0608117 -21.41994997 20.0608117 -24.421875 19.74609375 C-24.94265625 19.49988281 -25.4634375 19.25367188 -26 19 C-24.68 18.34 -23.36 17.68 -22 17 C-25.11227195 17 -27.94152152 17.45627049 -31 18 C-28.15900266 15.7363878 -25.34601382 14.10559971 -22.0625 12.5625 C-18.30753202 10.7321611 -15.12649979 8.81384981 -12 6 C-10.68 6.66 -9.36 7.32 -8 8 C-5.36 5.36 -2.72 2.72 0 0 Z " fill="#CFE1F7" transform="translate(415,236)"/>
<path d="M0 0 C0.28875 0.598125 0.5775 1.19625 0.875 1.8125 C2.04742026 4.19327792 2.04742026 4.19327792 4 7 C6.45513244 19.82649321 5.33327682 32.48037098 2 45 C1.34 44.34 0.68 43.68 0 43 C0.0234375 40.62890625 0.0234375 40.62890625 0.375 37.5625 C0.93614011 31.6104067 1.12162341 25.72825355 1.125 19.75 C1.12935059 18.90381104 1.13370117 18.05762207 1.13818359 17.18579102 C1.51604294 13.28015895 1.51604294 13.28015895 0 10 C-0.07205511 8.31391034 -0.08386068 6.62499341 -0.0625 4.9375 C-0.05347656 4.01839844 -0.04445313 3.09929687 -0.03515625 2.15234375 C-0.02355469 1.44207031 -0.01195312 0.73179688 0 0 Z " fill="#C7DAF6" transform="translate(423,124)"/>
<path d="M0 0 C1.0394775 3.1184325 1.11494838 5.27475586 1.09765625 8.54296875 C1.09443359 9.61611328 1.09121094 10.68925781 1.08789062 11.79492188 C1.07951172 12.91447266 1.07113281 14.03402344 1.0625 15.1875 C1.05798828 16.31865234 1.05347656 17.44980469 1.04882812 18.61523438 C1.03703498 21.41020927 1.0205765 24.2050782 1 27 C1.66 27.33 2.32 27.66 3 28 C3 20.08 3 12.16 3 4 C3.33 4 3.66 4 4 4 C4.05851976 8.16660676 4.0937706 12.33310637 4.125 16.5 C4.14175781 17.67304688 4.15851563 18.84609375 4.17578125 20.0546875 C4.21148985 26.41081848 3.90984993 31.92457188 2 38 C0.02 38.495 0.02 38.495 -2 39 C-3.125 31.375 -3.125 31.375 -2 28 C-1.94139429 26.45420871 -1.93875178 24.90590525 -1.97265625 23.359375 C-1.98490234 22.45316406 -1.99714844 21.54695313 -2.00976562 20.61328125 C-2.04463561 18.71997022 -2.08362892 16.82673019 -2.12695312 14.93359375 C-2.1919987 9.52333233 -1.80102942 5.11351098 0 0 Z " fill="#D5E6F8" transform="translate(316,276)"/>
<path d="M0 0 C0.66 0.33 1.32 0.66 2 1 C2.59119556 3.29088281 3.0722687 5.61054874 3.5 7.9375 C3.75636239 9.30731938 4.0128732 10.67711099 4.26953125 12.046875 C4.39279785 12.72041016 4.51606445 13.39394531 4.64306641 14.08789062 C5.25891724 17.38703132 5.97060838 20.6665224 6.66796875 23.94921875 C7 26 7 26 7 30 C6.34 30 5.68 30 5 30 C-0.54187195 20.71583075 -1.15843689 11.57000412 -1 1 C-0.67 0.67 -0.34 0.34 0 0 Z " fill="#AEC8F1" transform="translate(213,290)"/>
<path d="M0 0 C-7.64847214 5.09898143 -16.89612684 7.24143725 -26 6 C-28.56391861 5.2183175 -30.62083297 4.26888908 -33 3 C-33 2.34 -33 1.68 -33 1 C-31.73285156 1.02320313 -30.46570313 1.04640625 -29.16015625 1.0703125 C-27.46094345 1.08908833 -25.7617242 1.10728657 -24.0625 1.125 C-23.23169922 1.14175781 -22.40089844 1.15851563 -21.54492188 1.17578125 C-16.42260047 1.21564367 -11.86937997 0.71640075 -6.9140625 -0.60351562 C-4.40695523 -1.12284499 -2.4191132 -0.7803591 0 0 Z " fill="#C3D5F3" transform="translate(286,344)"/>
<path d="M0 0 C0.99 0.33 1.98 0.66 3 1 C2.67 3.31 2.34 5.62 2 8 C1.34 8 0.68 8 0 8 C0 15.92 0 23.84 0 32 C-0.99 31.67 -1.98 31.34 -3 31 C-3.05834395 27.12506384 -3.09371201 23.25024164 -3.125 19.375 C-3.14175781 18.28058594 -3.15851563 17.18617188 -3.17578125 16.05859375 C-3.23761244 5.85644774 -3.23761244 5.85644774 -1 1 C-0.67 0.67 -0.34 0.34 0 0 Z " fill="#A5BFEF" transform="translate(319,272)"/>
<path d="M0 0 C5.32634729 5.32634729 4.9896022 17.02013386 5.1875 24.25 C5.13433103 30.23682609 4.01869478 36.11521853 3 42 C2.67 42 2.34 42 2 42 C2.33 32.76 2.66 23.52 3 14 C2.34 14 1.68 14 1 14 C0.67 20.93 0.34 27.86 0 35 C-0.33 35 -0.66 35 -1 35 C-1.33 25.76 -1.66 16.52 -2 7 C-1.67 7 -1.34 7 -1 7 C-0.67 4.69 -0.34 2.38 0 0 Z " fill="#D8E7FA" transform="translate(425,170)"/>
<path d="M0 0 C0.56847656 0.34933594 1.13695312 0.69867188 1.72265625 1.05859375 C7.19993043 4.28643647 11.91412603 7.03778588 18.4453125 5.37890625 C20.17647658 4.83888641 21.90203398 4.28051912 23.62109375 3.703125 C26.47989888 2.85815797 29.03660174 2.76604751 32 3 C31.67 3.99 31.34 4.98 31 6 C29.35 6 27.7 6 26 6 C26 6.66 26 7.32 26 8 C20.79232276 10.60383862 11.81097676 9.73888532 6.265625 8.28125 C4.125 7.3125 4.125 7.3125 1 5 C0.3046875 2.35546875 0.3046875 2.35546875 0 0 Z " fill="#C3D6F5" transform="translate(322,75)"/>
<path d="M0 0 C0.33 0.99 0.66 1.98 1 3 C1.99 2.67 2.98 2.34 4 2 C2.34188185 8.6324726 -1.2886168 13.91917104 -6.6875 18.0625 C-9 19 -9 19 -12 18 C-11.401875 17.484375 -10.80375 16.96875 -10.1875 16.4375 C-8.0166799 14.01858618 -7.0287283 11.88415263 -5.859375 8.8828125 C-4.35954383 5.59681876 -2.170637 2.87462738 0 0 Z " fill="#CADBF6" transform="translate(313,312)"/>
<path d="M0 0 C0 3 0 3 -2.1875 5.375 C-3.115625 6.24125 -4.04375 7.1075 -5 8 C-5.86625 8.9075 -6.7325 9.815 -7.625 10.75 C-10 13 -10 13 -13 14 C-13.70125 14.804375 -14.4025 15.60875 -15.125 16.4375 C-18.84845625 19.75623275 -22.16802239 20.29467865 -27 21 C-27 20.34 -27 19.68 -27 19 C-26.34 19 -25.68 19 -25 19 C-25.33 17.68 -25.66 16.36 -26 15 C-25.01 14.67 -24.02 14.34 -23 14 C-22.34 13.34 -21.68 12.68 -21 12 C-20.34 12.66 -19.68 13.32 -19 14 C-17.51356155 13.43545368 -16.03593984 12.84765111 -14.5625 12.25 C-13.73878906 11.92515625 -12.91507812 11.6003125 -12.06640625 11.265625 C-9.81191359 10.20173193 -9.81191359 10.20173193 -9.39453125 7.95703125 C-9.26433594 7.31121094 -9.13414062 6.66539062 -9 6 C-7.03533587 4.93224776 -5.03144641 3.93446535 -3 3 C-1.18445841 1.43897509 -1.18445841 1.43897509 0 0 Z " fill="#B8CFF5" transform="translate(308,276)"/>
<path d="M0 0 C0.97066334 3.1117934 0.97731899 5.35955566 0.44140625 8.5625 C0.30275146 9.43632324 0.16409668 10.31014648 0.02124023 11.21044922 C-0.13014404 12.13100098 -0.28152832 13.05155273 -0.4375 14 C-1.52133085 20.95482899 -2.19235172 27.55279289 -1.98046875 34.60546875 C-2.00890768 38.09208196 -2.7076262 40.76906549 -4 44 C-4.99 44.495 -4.99 44.495 -6 45 C-5.84402344 44.28714844 -5.68804687 43.57429688 -5.52734375 42.83984375 C-4.371752 37.1537201 -3.952822 32.75947899 -5 27 C-5.76502321 17.52036454 -3.65540674 8.72529697 0 0 Z " fill="#CFDFF8" transform="translate(234,84)"/>
<path d="M0 0 C0 0.33 0 0.66 0 1 C-4.97510932 0.44369807 -9.15279068 -0.7009652 -13.8125 -2.5 C-22.40710639 -5.62420628 -30.93136183 -5.88573308 -40 -6 C-40 -6.33 -40 -6.66 -40 -7 C-26.58133793 -9.96070124 -11.40581224 -7.82024525 0 0 Z " fill="#D0E0F6" transform="translate(396,84)"/>
<path d="M0 0 C0 3 0 3 -1.5 4.6875 C-1.995 5.120625 -2.49 5.55375 -3 6 C-1.02 5.34 0.96 4.68 3 4 C2.34 5.32 1.68 6.64 1 8 C0.34 8 -0.32 8 -1 8 C-1 8.66 -1 9.32 -1 10 C-2.75 11.5078125 -2.75 11.5078125 -5 13.125 C-5.7425 13.66382813 -6.485 14.20265625 -7.25 14.7578125 C-8.11625 15.37269531 -8.11625 15.37269531 -9 16 C-9.66 15.67 -10.32 15.34 -11 15 C-10.195625 14.38125 -9.39125 13.7625 -8.5625 13.125 C-5.96125481 11.25835959 -5.96125481 11.25835959 -5 9 C-5.55429687 9.3609375 -6.10859375 9.721875 -6.6796875 10.09375 C-7.40414063 10.5578125 -8.12859375 11.021875 -8.875 11.5 C-9.59429687 11.9640625 -10.31359375 12.428125 -11.0546875 12.90625 C-13 14 -13 14 -15 14 C-15.33 14.99 -15.66 15.98 -16 17 C-17.32 16.67 -18.64 16.34 -20 16 C-19.3709375 15.57589844 -18.741875 15.15179688 -18.09375 14.71484375 C-11.6064767 10.26949834 -5.56562028 5.56562028 0 0 Z " fill="#D7E6F9" transform="translate(305,324)"/>
<path d="M0 0 C2.61437289 0.97105279 4.93066272 1.95535819 7.28125 3.46875 C10.27834058 5.15676653 12.96773193 5.91563045 16.3125 6.6875 C17.38113281 6.93886719 18.44976562 7.19023437 19.55078125 7.44921875 C20.35902344 7.63097656 21.16726562 7.81273437 22 8 C22 8.66 22 9.32 22 10 C29.92 9.67 37.84 9.34 46 9 C36.06968359 13.9651582 23.99924192 12.31902594 13.7578125 8.92578125 C8.13499066 6.74676594 3.79635781 4.74544726 0 0 Z " fill="#E1EDFC" transform="translate(234,289)"/>
<path d="M0 0 C0.53971889 2.62149174 0.41063181 4.32688589 -0.99609375 6.6328125 C-5.2121324 11.16642289 -9.54011456 11.5925681 -15.4375 11.875 C-17.96142575 11.96023784 -20.47400394 11.99393518 -23 12 C-20.09083887 9.59032361 -17.56302424 8.34602049 -13.9375 7.3125 C-13.08027344 7.06113281 -12.22304687 6.80976563 -11.33984375 6.55078125 C-9 6 -9 6 -6 6 C-6 5.34 -6 4.68 -6 4 C-1.41176471 0 -1.41176471 0 0 0 Z " fill="#C2D5F5" transform="translate(228,130)"/>
<path d="M0 0 C0.99 0.66 1.98 1.32 3 2 C0 4 0 4 -3 4 C-3.33 4.99 -3.66 5.98 -4 7 C-5.5823006 7.33820166 -7.16589375 7.67035939 -8.75 8 C-10.07257813 8.2784375 -10.07257813 8.2784375 -11.421875 8.5625 C-14 9 -14 9 -18 9 C-17 6 -17 6 -14.5 4.4375 C-10.98122678 2.99228957 -7.67254734 2.15079999 -3.953125 1.4296875 C-1.93414347 1.06898443 -1.93414347 1.06898443 0 0 Z " fill="#C9D9F3" transform="translate(392,251)"/>
<path d="M0 0 C0.99 0.33 1.98 0.66 3 1 C3.0868329 4.458176 3.14033282 7.91607344 3.1875 11.375 C3.22520508 12.85226563 3.22520508 12.85226563 3.26367188 14.359375 C3.27333984 15.30039063 3.28300781 16.24140625 3.29296875 17.2109375 C3.3086792 18.08024902 3.32438965 18.94956055 3.34057617 19.84521484 C3.22818604 20.55629395 3.1157959 21.26737305 3 22 C2.01 22.66 1.02 23.32 0 24 C0 16.08 0 8.16 0 0 Z " fill="#9FBDEC" transform="translate(425,183)"/>
<path d="M0 0 C0.33 0 0.66 0 1 0 C1.03758423 0.86165771 1.03758423 0.86165771 1.07592773 1.74072266 C1.19269875 4.36899721 1.31505419 6.99698395 1.4375 9.625 C1.47681641 10.52863281 1.51613281 11.43226563 1.55664062 12.36328125 C1.77578458 16.98216146 2.1008851 21.45153636 3 26 C2.01 26.33 1.02 26.66 0 27 C-1.59574458 23.80851084 -1.42316412 20.32385064 -1.625 16.8125 C-1.6765625 16.06935547 -1.728125 15.32621094 -1.78125 14.56054688 C-2.06068144 9.87185168 -1.89832383 5.61738449 -1 1 C-0.67 0.67 -0.34 0.34 0 0 Z " fill="#A1BEED" transform="translate(177,224)"/>
<path d="M0 0 C0.33 0 0.66 0 1 0 C1.1177595 4.10391862 1.18776774 8.20739356 1.25 12.3125 C1.30027344 14.03436523 1.30027344 14.03436523 1.3515625 15.79101562 C1.46542459 25.83934534 -0.69489528 33.48316134 -6 42 C-6.66 41.67 -7.32 41.34 -8 41 C-7.54554036 39.58208592 -7.08625056 38.16571954 -6.625 36.75 C-6.36976563 35.96109375 -6.11453125 35.1721875 -5.8515625 34.359375 C-5.04826333 32.13372042 -4.10288338 30.09068328 -3 28 C-2.34 28 -1.68 28 -1 28 C-0.67 18.76 -0.34 9.52 0 0 Z " fill="#D6E7FA" transform="translate(317,234)"/>
<path d="M0 0 C4.90546929 1.92714865 7.16276127 5.74414191 10 10 C10.125 12.6875 10.125 12.6875 10 15 C9.01 13.68 8.02 12.36 7 11 C7 15.95 7 20.9 7 26 C6.67 26 6.34 26 6 26 C5.89042969 25.14277344 5.78085938 24.28554688 5.66796875 23.40234375 C4.79758338 17.12566222 3.89466069 11.6577459 1 6 C1.66 6 2.32 6 3 6 C3 6.66 3 7.32 3 8 C3.66 8 4.32 8 5 8 C3.38731308 5.28775382 1.75098126 2.62647188 0 0 Z " fill="#D9E9F9" transform="translate(206,280)"/>
<path d="M0 0 C0.268125 0.61875 0.53625 1.2375 0.8125 1.875 C1.95556848 4.2995233 1.95556848 4.2995233 5 6 C4.67 7.32 4.34 8.64 4 10 C3.34 9.67 2.68 9.34 2 9 C1.34 10.98 0.68 12.96 0 15 C-0.33 14.34 -0.66 13.68 -1 13 C-1.99 13.33 -2.98 13.66 -4 14 C-3.46148032 8.72250715 -2.22656164 4.74354436 0 0 Z " fill="#C5D9F5" transform="translate(181,209)"/>
<path d="M0 0 C7.30534351 0.75572519 7.30534351 0.75572519 10.84375 2 C14.25996681 3.08236572 17.30390999 3.40636184 20.875 3.625 C22.60363281 3.73714844 22.60363281 3.73714844 24.3671875 3.8515625 C25.67042969 3.92503906 25.67042969 3.92503906 27 4 C27 4.33 27 4.66 27 5 C24.77090129 5.02714735 22.54170633 5.04646254 20.3125 5.0625 C19.07113281 5.07410156 17.82976562 5.08570313 16.55078125 5.09765625 C13.53764546 5.01478673 10.91724661 4.70839449 8 4 C8.33 4.99 8.66 5.98 9 7 C6.36 6.67 3.72 6.34 1 6 C1.99 5.67 2.98 5.34 4 5 C4 4.34 4 3.68 4 3 C2.0399719 1.36323743 2.0399719 1.36323743 0 0 Z " fill="#E1EDFC" transform="translate(245,341)"/>
<path d="M0 0 C4.45991062 0.53518927 7.06274922 2.19595189 10.625 4.875 C12.03652344 5.92300781 12.03652344 5.92300781 13.4765625 6.9921875 C14.30929687 7.65476562 15.14203125 8.31734375 16 9 C16.62648438 9.49757813 17.25296875 9.99515625 17.8984375 10.5078125 C19 12 19 12 18.6875 14.1875 C18.460625 14.785625 18.23375 15.38375 18 16 C17.44570313 15.50628906 16.89140625 15.01257813 16.3203125 14.50390625 C15.59585937 13.86324219 14.87140625 13.22257812 14.125 12.5625 C13.04605469 11.60537109 13.04605469 11.60537109 11.9453125 10.62890625 C10.09249509 8.94985535 10.09249509 8.94985535 8 8 C7.67 7.01 7.34 6.02 7 5 C5.37051936 3.77554716 5.37051936 3.77554716 3.4375 2.8125 C2.303125 2.214375 1.16875 1.61625 0 1 C0 0.67 0 0.34 0 0 Z " fill="#BED2F1" transform="translate(301,59)"/>
<path d="M0 0 C1.5625 1.75 1.5625 1.75 3 4 C2.6875 6.25 2.6875 6.25 2 8 C2.66 8.33 3.32 8.66 4 9 C5.98128683 11.93230451 7.35389319 14.51102321 8 18 C7.01 18 6.02 18 5 18 C0.67959365 13.30499194 -0.78490685 8.23770148 -1 2 C-0.67 1.34 -0.34 0.68 0 0 Z " fill="#C3D4F3" transform="translate(219,263)"/>
<path d="M0 0 C0.680625 0.70125 1.36125 1.4025 2.0625 2.125 C5.20780513 5.27934337 8.5888386 8.13934304 12 11 C11.01 11.495 11.01 11.495 10 12 C7.375 10.5625 7.375 10.5625 5 9 C4.67 9.66 4.34 10.32 4 11 C0.31197956 9.77065985 -0.72356973 8.06140622 -3 5 C-2.67 4.34 -2.34 3.68 -2 3 C-1.34 3.66 -0.68 4.32 0 5 C0 4.01 0 3.02 0 2 C0 1.34 0 0.68 0 0 Z " fill="#D2E4F8" transform="translate(225,324)"/>
<path d="M0 0 C1.09658936 3.28976808 0.79953138 4.71303767 0 8 C0.66 8 1.32 8 2 8 C2.12375 7.236875 2.2475 6.47375 2.375 5.6875 C3 3 3 3 5 0 C4.54996653 5.62541841 3.31558515 8.61487125 0 13 C-0.99 12.34 -1.98 11.68 -3 11 C-4.32 12.32 -5.64 13.64 -7 15 C-5.63408831 11.45756548 -4.09068516 8.07372071 -2.375 4.6875 C-1.70597656 3.36298828 -1.70597656 3.36298828 -1.0234375 2.01171875 C-0.68570312 1.34785156 -0.34796875 0.68398437 0 0 Z " fill="#DBE9F9" transform="translate(420,218)"/>
<path d="M0 0 C4.30925868 1.43641956 6.01508676 4.37067383 8.75 7.875 C9.26949219 8.51308594 9.78898437 9.15117188 10.32421875 9.80859375 C11.6355844 11.4747586 12.8276945 13.23322752 14 15 C13.67 15.99 13.34 16.98 13 18 C13 17.34 13 16.68 13 16 C12.3915625 15.92652344 11.783125 15.85304688 11.15625 15.77734375 C8.20712102 14.71416138 7.82038319 13.35047127 6.5 10.5625 C4.81437594 7.01471693 3.71046693 5.43859205 0 4 C0 2.68 0 1.36 0 0 Z " fill="#C1D5F4" transform="translate(404,91)"/>
<path d="M0 0 C2.56616632 3.84924948 2.55097676 6.4349304 3 11 C2.01 11.33 1.02 11.66 0 12 C0 11.34 0 10.68 0 10 C-0.66 10 -1.32 10 -2 10 C-4.29013653 6.5647952 -4.17842973 5.014669 -4 1 C-3.67 1.66 -3.34 2.32 -3 3 C-2.01 2.01 -1.02 1.02 0 0 Z " fill="#C3D6F2" transform="translate(180,248)"/>
<path d="M0 0 C1.45669427 0.19983532 2.91516038 0.38711291 4.375 0.5625 C6.169375 0.7790625 6.169375 0.7790625 8 1 C8 1.33 8 1.66 8 2 C-0.91 2.99 -0.91 2.99 -10 4 C-10 3.01 -10 2.02 -10 1 C-6.3571607 -1.38185646 -4.16028387 -0.88006005 0 0 Z " fill="#C4D8F5" transform="translate(350,262)"/>
<path d="M0 0 C-0.804375 0.28875 -1.60875 0.5775 -2.4375 0.875 C-5.1326468 1.73262568 -5.1326468 1.73262568 -6 4 C-3.36 3.67 -0.72 3.34 2 3 C-4.78727797 7.52485198 -12.12078111 7.26070945 -20 7 C-20 6.67 -20 6.34 -20 6 C-16.04 5.34 -12.08 4.68 -8 4 C-8 3.67 -8 3.34 -8 3 C-9.65 2.67 -11.3 2.34 -13 2 C-13 1.67 -13 1.34 -13 1 C-11.39796533 0.63631108 -9.79325797 0.28438048 -8.1875 -0.0625 C-7.29417969 -0.25972656 -6.40085937 -0.45695313 -5.48046875 -0.66015625 C-3 -1 -3 -1 0 0 Z " fill="#E1EEFC" transform="translate(380,256)"/>
<path d="M0 0 C3.1257396 0.10962816 6.25024781 0.24031241 9.375 0.375 C10.26445312 0.4059375 11.15390625 0.436875 12.0703125 0.46875 C12.92109375 0.50742187 13.771875 0.54609375 14.6484375 0.5859375 C15.43395996 0.6173584 16.21948242 0.6487793 17.02880859 0.68115234 C19 1 19 1 21 3 C14.4 3 7.8 3 1 3 C0.67 2.01 0.34 1.02 0 0 Z " fill="#A2BEEC" transform="translate(253,345)"/>
<path d="M0 0 C0.33 0.99 0.66 1.98 1 3 C-0.79143207 3.9795958 -2.58315304 4.9586633 -4.375 5.9375 C-5.37273437 6.48277344 -6.37046875 7.02804688 -7.3984375 7.58984375 C-8.92070346 8.4149759 -10.45128783 9.22564391 -12 10 C-12.0625 7.25 -12.0625 7.25 -11 4 C-7.71817155 1.88475901 -3.95859041 0 0 0 Z " fill="#C1D5F5" transform="translate(333,217)"/>
<path d="M0 0 C-0.99 0.495 -0.99 0.495 -2 1 C-2 1.99 -2 2.98 -2 4 C2.455 3.505 2.455 3.505 7 3 C4.13771795 4.43114103 2.00359672 5.40726882 -1 6.1875 C-1.66 6.36667969 -2.32 6.54585938 -3 6.73046875 C-5.26540976 7.03576811 -6.835092 6.68136613 -9 6 C-7.35 5.34 -5.7 4.68 -4 4 C-6.97 3.505 -6.97 3.505 -10 3 C-6.1865669 0.45771127 -4.5252563 -0.11908569 0 0 Z " fill="#DCEBFB" transform="translate(342,262)"/>
<path d="M0 0 C2 1 2 1 2.62109375 2.734375 C3.04706889 5.28144284 3.09646629 7.66856169 3.0625 10.25 C3.05347656 11.14203125 3.04445312 12.0340625 3.03515625 12.953125 C3.02355469 13.62859375 3.01195312 14.3040625 3 15 C2.01 14.67 1.02 14.34 0 14 C-0.19393875 11.85473901 -0.37998676 9.70876323 -0.5625 7.5625 C-0.71912109 5.77005859 -0.71912109 5.77005859 -0.87890625 3.94140625 C-0.91886719 2.97074219 -0.95882812 2.00007813 -1 1 C-0.67 0.67 -0.34 0.34 0 0 Z " fill="#A2C0EA" transform="translate(213,290)"/>
<path d="M0 0 C2.61437289 0.97105279 4.93066272 1.95535819 7.28125 3.46875 C10.27834058 5.15676653 12.96773193 5.91563045 16.3125 6.6875 C17.38113281 6.93886719 18.44976562 7.19023437 19.55078125 7.44921875 C20.35902344 7.63097656 21.16726562 7.81273437 22 8 C22 8.33 22 8.66 22 9 C14.25503099 9.89365027 8.51081817 7.11684041 2 3 C1.34 2.01 0.68 1.02 0 0 Z " fill="#D2E3F7" transform="translate(234,289)"/>
<path d="M0 0 C4.24476913 0.67916306 7.45577937 2.65947694 11 5 C11.9375 7.25 11.9375 7.25 12 9 C8.36679834 8.41083216 6.45533138 6.94481799 3.75 4.5 C3.04359375 3.8709375 2.3371875 3.241875 1.609375 2.59375 C1.07828125 2.0678125 0.5471875 1.541875 0 1 C0 0.67 0 0.34 0 0 Z " fill="#A8BFEA" transform="translate(187,269)"/>
<path d="M0 0 C0.66 0.33 1.32 0.66 2 1 C1.10633592 4.65589852 0.55523341 6.55866062 -2.4375 8.9375 C-5 10 -5 10 -8 9 C-5.36 6.03 -2.72 3.06 0 0 Z " fill="#A8C4EB" transform="translate(309,321)"/>
<path d="M0 0 C0 3 0 3 -2.1875 5.375 C-3.115625 6.24125 -4.04375 7.1075 -5 8 C-5.928125 8.928125 -6.85625 9.85625 -7.8125 10.8125 C-8.534375 11.534375 -9.25625 12.25625 -10 13 C-10.66 12.67 -11.32 12.34 -12 12 C-11.34 11.34 -10.68 10.68 -10 10 C-9.9175 9.360625 -9.835 8.72125 -9.75 8.0625 C-9 6 -9 6 -6.125 4.4375 C-5.09375 3.963125 -4.0625 3.48875 -3 3 C-1.18445841 1.43897509 -1.18445841 1.43897509 0 0 Z " fill="#D4E4F8" transform="translate(308,276)"/>
<path d="M0 0 C0 0.99 0 1.98 0 3 C-5.03511899 4.0070238 -8.23947038 3.97387813 -13 2 C-13 1.67 -13 1.34 -13 1 C-8.60563789 0.14256349 -4.47427924 -0.08948558 0 0 Z " fill="#A6C4EE" transform="translate(373,258)"/>
<path d="M0 0 C0.33 0.99 0.66 1.98 1 3 C0.56042969 3.38800781 0.12085938 3.77601562 -0.33203125 4.17578125 C-2.3192589 6.34916605 -3.41369452 8.53660751 -4.6875 11.1875 C-5.12449219 12.08855469 -5.56148437 12.98960938 -6.01171875 13.91796875 C-6.33785156 14.60503906 -6.66398438 15.29210937 -7 16 C-7.7109375 14.35546875 -7.7109375 14.35546875 -8 12 C-6.6015625 9.23828125 -6.6015625 9.23828125 -4.625 6.3125 C-3.97789062 5.33925781 -3.33078125 4.36601563 -2.6640625 3.36328125 C-1 1 -1 1 0 0 Z " fill="#A8BFED" transform="translate(243,72)"/>
<path d="M0 0 C2.31 0.33 4.62 0.66 7 1 C7.0825 1.61875 7.165 2.2375 7.25 2.875 C7.81258459 5.18437567 7.81258459 5.18437567 10.0625 6.25 C10.701875 6.4975 11.34125 6.745 12 7 C11.01 7.495 11.01 7.495 10 8 C8.33055479 6.85821872 6.6645052 5.71147095 5 4.5625 C4.071875 3.92441406 3.14375 3.28632813 2.1875 2.62890625 C1.465625 2.09136719 0.74375 1.55382812 0 1 C0 0.67 0 0.34 0 0 Z " fill="#CEDFF6" transform="translate(195,228)"/>
<path d="M0 0 C-2.07914664 0.70005949 -4.16351586 1.38462244 -6.25 2.0625 C-7.41015625 2.44535156 -8.5703125 2.82820312 -9.765625 3.22265625 C-12.80077085 3.95211763 -14.15703213 4.11889082 -17 3 C-11.57774353 -0.11779747 -6.15178555 -2.05059518 0 0 Z " fill="#CDDDF7" transform="translate(389,208)"/>
<path d="M0 0 C0.33 0.66 0.66 1.32 1 2 C-3.12168689 3.62950412 -5.70700357 4.26264601 -10 3 C-6.68152292 -0.06320961 -4.44849969 -0.3033068 0 0 Z " fill="#A1C0EE" transform="translate(338,265)"/>
<path d="M0 0 C1.5625 1.6875 1.5625 1.6875 3 4 C2.625 6.5 2.625 6.5 2 9 C2.36856864 11.23167185 2.36856864 11.23167185 3 13 C1.00768051 11.61403861 0.10916527 10.45625486 -0.45703125 8.08984375 C-1.22476819 2.44953638 -1.22476819 2.44953638 0 0 Z " fill="#B3CCF7" transform="translate(219,263)"/>
<path d="M0 0 C0 3.96130371 -1.34877125 4.82914401 -4 7.6875 C-4.7425 8.49574219 -5.485 9.30398437 -6.25 10.13671875 C-6.8275 10.75160156 -7.405 11.36648437 -8 12 C-8.66 11.67 -9.32 11.34 -10 11 C-9.21625 10.278125 -8.4325 9.55625 -7.625 8.8125 C-5.11423596 6.12239567 -4.29682574 4.33469476 -3 1 C-2.01 0.67 -1.02 0.34 0 0 Z " fill="#D7E5F8" transform="translate(415,185)"/>
<path d="M0 0 C0.33 0 0.66 0 1 0 C1.19294408 4.82360189 0.75747614 8.49646738 -1 13 C-3 10 -3 10 -2.75 6.5 C-2 3 -2 3 0 0 Z " fill="#C2D7F7" transform="translate(216,299)"/>
<path d="M0 0 C0.66 0 1.32 0 2 0 C1.36747553 3.19137349 0.24396936 5.51237368 -1.5 8.25 C-1.9434375 8.95640625 -2.386875 9.6628125 -2.84375 10.390625 C-3.2253125 10.92171875 -3.606875 11.4528125 -4 12 C-4.33 12 -4.66 12 -5 12 C-5 10.35 -5 8.7 -5 7 C-4.01 6.67 -3.02 6.34 -2 6 C-2 5.01 -2 4.02 -2 3 C-1.34 3 -0.68 3 0 3 C0 2.01 0 1.02 0 0 Z " fill="#C9DDF6" transform="translate(421,173)"/>
<path d="M0 0 C0.99 0.33 1.98 0.66 3 1 C2.67 1.66 2.34 2.32 2 3 C3.98 2.67 5.96 2.34 8 2 C6.37660195 3.70884005 4.70680947 5.37446717 3 7 C2.34 7 1.68 7 1 7 C1 6.01 1 5.02 1 4 C0.34 4 -0.32 4 -1 4 C-0.67 2.68 -0.34 1.36 0 0 Z " fill="#DCE9FA" transform="translate(321,269)"/>
<path d="M0 0 C2.31 0.33 4.62 0.66 7 1 C7.12375 1.61875 7.2475 2.2375 7.375 2.875 C7.87197356 5.19120832 7.87197356 5.19120832 10 7 C6.50841798 6.35341074 3.9025144 5.03960471 1 3 C0.67 2.01 0.34 1.02 0 0 Z " fill="#C0D6F3" transform="translate(236,339)"/>
<path d="M0 0 C0.99 0.33 1.98 0.66 3 1 C2.67 3.31 2.34 5.62 2 8 C1.67 7.01 1.34 6.02 1 5 C0.01 5 -0.98 5 -2 5 C-1.125 1.125 -1.125 1.125 0 0 Z " fill="#BDD4F2" transform="translate(319,272)"/>
<path d="M0 0 C0.99 0.66 1.98 1.32 3 2 C-0.85756507 4.15305957 -3.55129785 5.39253254 -8 5 C-8 4.34 -8 3.68 -8 3 C-6.73637508 2.44172391 -5.4637081 1.90387903 -4.1875 1.375 C-3.47980469 1.07335937 -2.77210938 0.77171875 -2.04296875 0.4609375 C-1.36878906 0.30882812 -0.69460938 0.15671875 0 0 Z " fill="#A3BDEB" transform="translate(392,251)"/>
<path d="M0 0 C0.66 0 1.32 0 2 0 C1.10164835 7.78571429 1.10164835 7.78571429 -1 11 C-1.99 11.495 -1.99 11.495 -3 12 C-2.69230293 10.18667846 -2.37870936 8.37435655 -2.0625 6.5625 C-1.80146484 5.04849609 -1.80146484 5.04849609 -1.53515625 3.50390625 C-1 1 -1 1 0 0 Z " fill="#C5D6F5" transform="translate(181,164)"/>
<path d="M0 0 C3.29696105 1.09898702 4.04670589 1.94597387 6.1875 4.5625 C6.71730469 5.20316406 7.24710937 5.84382813 7.79296875 6.50390625 C8.19128906 6.99761719 8.58960938 7.49132812 9 8 C8.67 8.66 8.34 9.32 8 10 C7.4225 9.38125 6.845 8.7625 6.25 8.125 C4.19750179 6.18652947 2.56633418 5.09985751 0 4 C0 2.68 0 1.36 0 0 Z " fill="#D4E5F9" transform="translate(404,91)"/>
<path d="M0 0 C2.3125 0.125 2.3125 0.125 5 1 C6.875 3.875 6.875 3.875 8 7 C7.67 7.99 7.34 8.98 7 10 C6.401875 8.906875 5.80375 7.81375 5.1875 6.6875 C3.70955303 4.08925871 2.30177067 1.95650507 0 0 Z " fill="#ADC6EC" transform="translate(207,236)"/>
<path d="M0 0 C1.75 0.125 1.75 0.125 4 1 C5.92560809 3.58581657 7.5590536 6.1181072 9 9 C5.18063472 7.44396229 2.73955562 5.04395069 0 2 C0 1.34 0 0.68 0 0 Z " fill="#D2E2F9" transform="translate(186,219)"/>
<path d="M0 0 C1.91302307 3.26613695 2.35674661 5.99445248 2.625 9.75 C2.69976562 10.73484375 2.77453125 11.7196875 2.8515625 12.734375 C2.92503906 13.85585937 2.92503906 13.85585937 3 15 C2.690625 14.360625 2.38125 13.72125 2.0625 13.0625 C1.1654837 11.06389179 1.1654837 11.06389179 0 10 C-0.07205511 8.31391034 -0.08386068 6.62499341 -0.0625 4.9375 C-0.05347656 4.01839844 -0.04445313 3.09929687 -0.03515625 2.15234375 C-0.02355469 1.44207031 -0.01195312 0.73179688 0 0 Z " fill="#A2BEEB" transform="translate(423,124)"/>
<path d="M0 0 C2.31 0.66 4.62 1.32 7 2 C6.67 2.99 6.34 3.98 6 5 C3.625 4.6875 3.625 4.6875 1 4 C0.34 3.01 -0.32 2.02 -1 1 C-0.67 0.67 -0.34 0.34 0 0 Z " fill="#A5C3EB" transform="translate(243,341)"/>
<path d="M0 0 C0.99 0.33 1.98 0.66 3 1 C2.67 1.99 2.34 2.98 2 4 C1.77548542 6.22574335 1.59217122 8.45581519 1.4375 10.6875 C1.35371094 11.86699219 1.26992188 13.04648438 1.18359375 14.26171875 C1.12300781 15.16535156 1.06242187 16.06898438 1 17 C0.67 17 0.34 17 0 17 C0 11.39 0 5.78 0 0 Z " fill="#AEC8E9" transform="translate(425,183)"/>
<path d="M0 0 C1.65 0 3.3 0 5 0 C5 1.32 5 2.64 5 4 C2.36 3.67 -0.28 3.34 -3 3 C-2.01 2.67 -1.02 2.34 0 2 C0 1.34 0 0.68 0 0 Z " fill="#C9DBF5" transform="translate(249,344)"/>
<path d="M0 0 C2.46800047 1.15173355 4.04783565 2.04783565 6 4 C6 4.99 6 5.98 6 7 C5.34 7 4.68 7 4 7 C4 6.34 4 5.68 4 5 C2.68 4.34 1.36 3.68 0 3 C0 2.01 0 1.02 0 0 Z " fill="#A4BDEB" transform="translate(205,281)"/>
<path d="M0 0 C0 0.99 0 1.98 0 3 C-2.31 3.33 -4.62 3.66 -7 4 C-7 3.01 -7 2.02 -7 1 C-4.53721199 -0.231394 -2.7204945 -0.07159196 0 0 Z " fill="#A5C0F0" transform="translate(347,262)"/>
<path d="M0 0 C-0.33 0.66 -0.66 1.32 -1 2 C-3.32156597 2.40729228 -5.6568787 2.74438677 -8 3 C-7.67 2.01 -7.34 1.02 -7 0 C-3.86650268 -1.04449911 -3.01031744 -0.93423645 0 0 Z " fill="#A2BDED" transform="translate(382,257)"/>
<path d="M0 0 C0.99 0 1.98 0 3 0 C2.47731534 2.76276177 1.89130413 5.3260876 1 8 C0.34 8 -0.32 8 -1 8 C-0.67 5.36 -0.34 2.72 0 0 Z " fill="#A6C2EB" transform="translate(421,218)"/>
<path d="M0 0 C3.96 1.98 3.96 1.98 8 4 C7.67 4.66 7.34 5.32 7 6 C4.03824877 5.38722388 2.61941217 4.74627478 0 3 C0 2.01 0 1.02 0 0 Z " fill="#A1BDEF" transform="translate(229,332)"/>
<path d="M0 0 C2.4375 0.75 2.4375 0.75 5 2 C5.8125 4.125 5.8125 4.125 6 6 C3.5625 5.25 3.5625 5.25 1 4 C0.1875 1.875 0.1875 1.875 0 0 Z " fill="#CAD9F4" transform="translate(228,283)"/>
<path d="M0 0 C0.66 0.66 1.32 1.32 2 2 C1.625 4.625 1.625 4.625 1 7 C0.01 7.33 -0.98 7.66 -2 8 C-1.125 1.125 -1.125 1.125 0 0 Z " fill="#A7C2EB" transform="translate(179,215)"/>
<path d="M0 0 C2 2 2 2 2.1953125 4.3828125 C2.17210937 5.28773438 2.14890625 6.19265625 2.125 7.125 C2.10695313 8.03507813 2.08890625 8.94515625 2.0703125 9.8828125 C2.03550781 10.93082031 2.03550781 10.93082031 2 12 C-0.42115191 9.57884809 -0.60948898 8.35839475 -1 5 C-0.5625 2.1875 -0.5625 2.1875 0 0 Z " fill="#A3BEEC" transform="translate(423,167)"/>
<path d="M0 0 C5.02692063 0.45699278 8.14896261 2.99241748 12 6 C11.01 6.495 11.01 6.495 10 7 C7.6171875 5.8203125 7.6171875 5.8203125 4.875 4.125 C3.96492188 3.57070313 3.05484375 3.01640625 2.1171875 2.4453125 C1.41851562 1.96835937 0.71984375 1.49140625 0 1 C0 0.67 0 0.34 0 0 Z " fill="#E4F1FE" transform="translate(301,59)"/>
<path d="M0 0 C0.66 0.33 1.32 0.66 2 1 C0.625 2.5 0.625 2.5 -1 4 C-1.66 4 -2.32 4 -3 4 C-3.33 4.99 -3.66 5.98 -4 7 C-5.32 6.67 -6.64 6.34 -8 6 C-5.36 4.02 -2.72 2.04 0 0 Z " fill="#DEEAFB" transform="translate(293,334)"/>
<path d="M0 0 C1.65 1.65 3.3 3.3 5 5 C4.01 6.485 4.01 6.485 3 8 C1.5 6.8125 1.5 6.8125 0 5 C-0.1875 2.3125 -0.1875 2.3125 0 0 Z " fill="#A9BEEC" transform="translate(222,322)"/>
<path d="M0 0 C2.475 0.99 2.475 0.99 5 2 C3.85533385 4.2893323 2.84607449 5.15392551 1 7 C0 6 0 6 -0.0625 2.9375 C-0.041875 1.968125 -0.02125 0.99875 0 0 Z " fill="#C3D6F4" transform="translate(220,320)"/>
<path d="M0 0 C1.9375 0.6875 1.9375 0.6875 4 2 C4.75 4.625 4.75 4.625 5 7 C2.37812506 5.95125002 1.20628639 5.35068687 -0.25 2.875 C-0.4975 2.25625 -0.745 1.6375 -1 1 C-0.67 0.67 -0.34 0.34 0 0 Z " fill="#BCD2F2" transform="translate(202,279)"/>
<path d="M0 0 C-0.66 0.66 -1.32 1.32 -2 2 C-4.72869407 1.96712417 -7.2966618 1.43602229 -10 1 C-10 0.67 -10 0.34 -10 0 C-6.33694766 -0.74926071 -3.57644848 -1.2380014 0 0 Z " fill="#B2CAF3" transform="translate(372,211)"/>
<path d="M0 0 C0 1.65 0 3.3 0 5 C-2.07553648 5.5534764 -3.84365964 6 -6 6 C-6 5.34 -6 4.68 -6 4 C-1.41176471 0 -1.41176471 0 0 0 Z " fill="#CADDF6" transform="translate(228,130)"/>
<path d="M0 0 C0.33 1.32 0.66 2.64 1 4 C-0.32 4.99 -1.64 5.98 -3 7 C-3.33 6.01 -3.66 5.02 -4 4 C-2.68 2.68 -1.36 1.36 0 0 Z " fill="#A3BEE9" transform="translate(409,238)"/>
</svg>
