<?xml version="1.0" standalone="no"?>
<!DOCTYPE svg PUBLIC "-//W3C//DTD SVG 20010904//EN"
 "http://www.w3.org/TR/2001/REC-SVG-20010904/DTD/svg10.dtd">
<svg version="1.0" xmlns="http://www.w3.org/2000/svg"
 width="666.000000pt" height="374.000000pt" viewBox="0 0 666.000000 374.000000"
 preserveAspectRatio="xMidYMid meet">

<g transform="translate(0.000000,374.000000) scale(0.100000,-0.100000)"
fill="#000000" stroke="none">
<path d="M2690 2864 c-48 -9 -145 -47 -185 -73 -22 -14 -94 -65 -159 -114
-169 -127 -205 -142 -336 -142 -95 0 -110 3 -157 28 -29 15 -90 61 -135 103
-53 47 -110 89 -157 112 -71 35 -80 37 -170 37 -91 0 -100 -2 -173 -38 -114
-55 -170 -130 -203 -270 -49 -209 40 -500 218 -712 98 -117 164 -175 350 -309
169 -122 226 -211 291 -454 88 -326 191 -497 353 -584 178 -96 375 -95 578 2
73 35 104 59 214 165 148 141 188 166 281 173 67 4 111 -5 305 -62 50 -15 126
-30 170 -33 299 -21 546 205 629 577 31 136 73 228 124 270 20 17 100 62 177
100 206 102 311 196 385 346 93 190 71 382 -65 563 -86 113 -224 200 -383 240
-198 51 -379 5 -678 -174 -294 -177 -427 -222 -569 -196 -110 21 -184 76 -293
221 -85 114 -152 175 -218 199 -57 22 -148 33 -194 25z"/>
</g>
</svg>
